<mxfile host="app.diagrams.net" modified="2024-06-10T23:53:30.364Z" agent="Mozilla/5.0 (Windows NT 10.0; Win64; x64) AppleWebKit/537.36 (KHTML, like Gecko) Chrome/125.0.0.0 Safari/537.36" etag="b9pYSudiWpqsQm9-4C7K" version="24.5.2" type="device" pages="9">
  <diagram name="ReqFun1" id="0783ab3e-0a74-02c8-0abd-f7b4e66b4bec">
    <mxGraphModel dx="1843" dy="813" grid="1" gridSize="10" guides="1" tooltips="1" connect="1" arrows="1" fold="1" page="1" pageScale="1" pageWidth="850" pageHeight="1100" background="none" math="0" shadow="0">
      <root>
        <mxCell id="0" />
        <mxCell id="1" parent="0" />
        <mxCell id="1c1d494c118603dd-1" value="Ingreso de datos del paciente" style="swimlane;html=1;childLayout=stackLayout;startSize=20;rounded=0;shadow=0;comic=0;labelBackgroundColor=none;strokeWidth=1;fontFamily=Verdana;fontSize=12;align=center;" parent="1" vertex="1">
          <mxGeometry x="40" y="20" width="590" height="940" as="geometry" />
        </mxCell>
        <mxCell id="1c1d494c118603dd-2" value="Medico&amp;nbsp;" style="swimlane;html=1;startSize=20;" parent="1c1d494c118603dd-1" vertex="1">
          <mxGeometry y="20" width="250" height="920" as="geometry" />
        </mxCell>
        <mxCell id="c64iSauEU0TwEfmIKcgi-4" style="edgeStyle=orthogonalEdgeStyle;rounded=0;orthogonalLoop=1;jettySize=auto;html=1;" parent="1c1d494c118603dd-2" source="60571a20871a0731-8" target="c64iSauEU0TwEfmIKcgi-3" edge="1">
          <mxGeometry relative="1" as="geometry" />
        </mxCell>
        <mxCell id="60571a20871a0731-8" value="&lt;div style=&quot;text-align: start;&quot;&gt;&lt;font face=&quot;Helvetica&quot; style=&quot;font-size: 12px;&quot; color=&quot;#111111&quot;&gt;&lt;span style=&quot;white-space-collapse: preserve; background-color: rgb(247, 247, 247);&quot;&gt;&lt;b style=&quot;&quot;&gt;inicia sesión &lt;/b&gt;&lt;/span&gt;&lt;/font&gt;&lt;/div&gt;" style="rounded=1;whiteSpace=wrap;html=1;shadow=0;comic=0;labelBackgroundColor=none;strokeWidth=1;fontFamily=Verdana;fontSize=12;align=center;arcSize=50;" parent="1c1d494c118603dd-2" vertex="1">
          <mxGeometry x="50" y="90" width="100" height="30" as="geometry" />
        </mxCell>
        <mxCell id="c64iSauEU0TwEfmIKcgi-3" value="&lt;b&gt;Selecciona la opción &quot;Registrar Paciente&lt;/b&gt;" style="rounded=1;whiteSpace=wrap;html=1;" parent="1c1d494c118603dd-2" vertex="1">
          <mxGeometry x="45" y="160" width="110" height="70" as="geometry" />
        </mxCell>
        <mxCell id="i9rXaYjQRLO5KMmcW1bs-6" value="" style="edgeStyle=orthogonalEdgeStyle;rounded=0;orthogonalLoop=1;jettySize=auto;html=1;" parent="1c1d494c118603dd-2" source="i9rXaYjQRLO5KMmcW1bs-3" target="i9rXaYjQRLO5KMmcW1bs-5" edge="1">
          <mxGeometry relative="1" as="geometry" />
        </mxCell>
        <mxCell id="i9rXaYjQRLO5KMmcW1bs-3" value="&lt;b&gt;&lt;font face=&quot;Helvetica&quot;&gt;Llena los datos del paciente&lt;/font&gt;&lt;/b&gt;" style="whiteSpace=wrap;html=1;fontFamily=Verdana;rounded=0;shadow=0;comic=0;labelBackgroundColor=none;strokeWidth=1;arcSize=50;" parent="1c1d494c118603dd-2" vertex="1">
          <mxGeometry x="50" y="280" width="120" height="60" as="geometry" />
        </mxCell>
        <mxCell id="i9rXaYjQRLO5KMmcW1bs-5" value="&lt;b&gt;&lt;font face=&quot;Helvetica&quot;&gt;Envía el formulario&lt;/font&gt;&lt;/b&gt;" style="whiteSpace=wrap;html=1;fontFamily=Verdana;rounded=0;shadow=0;comic=0;labelBackgroundColor=none;strokeWidth=1;arcSize=50;" parent="1c1d494c118603dd-2" vertex="1">
          <mxGeometry x="50" y="420" width="120" height="60" as="geometry" />
        </mxCell>
        <mxCell id="lYHj6Z10xWIgyVQOfB8K-12" style="edgeStyle=orthogonalEdgeStyle;rounded=0;orthogonalLoop=1;jettySize=auto;html=1;entryX=0;entryY=0.5;entryDx=0;entryDy=0;" edge="1" parent="1c1d494c118603dd-2" source="i9rXaYjQRLO5KMmcW1bs-17" target="i9rXaYjQRLO5KMmcW1bs-5">
          <mxGeometry relative="1" as="geometry">
            <Array as="points">
              <mxPoint x="30" y="585" />
              <mxPoint x="30" y="450" />
            </Array>
          </mxGeometry>
        </mxCell>
        <mxCell id="i9rXaYjQRLO5KMmcW1bs-17" value="&lt;b&gt;&lt;font face=&quot;Helvetica&quot;&gt;Muestra mensaje de error y solicita llenar nuevamente el formulario&amp;nbsp;&lt;/font&gt;&lt;/b&gt;" style="rounded=1;whiteSpace=wrap;html=1;" parent="1c1d494c118603dd-2" vertex="1">
          <mxGeometry x="60" y="555" width="120" height="60" as="geometry" />
        </mxCell>
        <mxCell id="lYHj6Z10xWIgyVQOfB8K-2" value="" style="ellipse;html=1;shape=startState;fillColor=#000000;strokeColor=#ff0000;" vertex="1" parent="1c1d494c118603dd-2">
          <mxGeometry x="85" y="30" width="30" height="30" as="geometry" />
        </mxCell>
        <mxCell id="lYHj6Z10xWIgyVQOfB8K-3" value="" style="edgeStyle=orthogonalEdgeStyle;html=1;verticalAlign=bottom;endArrow=open;endSize=8;strokeColor=#ff0000;rounded=0;entryX=0.5;entryY=0;entryDx=0;entryDy=0;" edge="1" source="lYHj6Z10xWIgyVQOfB8K-2" parent="1c1d494c118603dd-2" target="60571a20871a0731-8">
          <mxGeometry relative="1" as="geometry">
            <mxPoint x="95" y="120" as="targetPoint" />
            <Array as="points">
              <mxPoint x="100" y="45" />
            </Array>
          </mxGeometry>
        </mxCell>
        <mxCell id="c64iSauEU0TwEfmIKcgi-5" style="edgeStyle=orthogonalEdgeStyle;rounded=0;orthogonalLoop=1;jettySize=auto;html=1;" parent="1c1d494c118603dd-1" source="c64iSauEU0TwEfmIKcgi-3" target="1c1d494c118603dd-15" edge="1">
          <mxGeometry relative="1" as="geometry">
            <mxPoint x="310.0000000000002" y="195" as="targetPoint" />
          </mxGeometry>
        </mxCell>
        <mxCell id="i9rXaYjQRLO5KMmcW1bs-4" value="" style="edgeStyle=orthogonalEdgeStyle;rounded=0;orthogonalLoop=1;jettySize=auto;html=1;" parent="1c1d494c118603dd-1" source="1c1d494c118603dd-15" target="i9rXaYjQRLO5KMmcW1bs-3" edge="1">
          <mxGeometry relative="1" as="geometry">
            <Array as="points">
              <mxPoint x="370" y="330" />
            </Array>
          </mxGeometry>
        </mxCell>
        <mxCell id="i9rXaYjQRLO5KMmcW1bs-10" style="edgeStyle=orthogonalEdgeStyle;rounded=0;orthogonalLoop=1;jettySize=auto;html=1;" parent="1c1d494c118603dd-1" source="i9rXaYjQRLO5KMmcW1bs-5" target="i9rXaYjQRLO5KMmcW1bs-11" edge="1">
          <mxGeometry relative="1" as="geometry">
            <mxPoint x="300.0000000000002" y="470" as="targetPoint" />
          </mxGeometry>
        </mxCell>
        <mxCell id="1c1d494c118603dd-3" value="Sistema&amp;nbsp;" style="swimlane;html=1;startSize=20;" parent="1c1d494c118603dd-1" vertex="1">
          <mxGeometry x="250" y="20" width="340" height="920" as="geometry" />
        </mxCell>
        <mxCell id="1c1d494c118603dd-15" value="&lt;b&gt;&lt;font face=&quot;Helvetica&quot;&gt;Presenta un formulario de registro.&lt;/font&gt;&lt;/b&gt;" style="rounded=0;whiteSpace=wrap;html=1;shadow=0;comic=0;labelBackgroundColor=none;strokeWidth=1;fontFamily=Verdana;fontSize=12;align=center;arcSize=50;" parent="1c1d494c118603dd-3" vertex="1">
          <mxGeometry x="70" y="170" width="110" height="50" as="geometry" />
        </mxCell>
        <mxCell id="i9rXaYjQRLO5KMmcW1bs-13" value="" style="edgeStyle=orthogonalEdgeStyle;rounded=0;orthogonalLoop=1;jettySize=auto;html=1;" parent="1c1d494c118603dd-3" source="i9rXaYjQRLO5KMmcW1bs-11" edge="1">
          <mxGeometry relative="1" as="geometry">
            <mxPoint x="120" y="540" as="targetPoint" />
          </mxGeometry>
        </mxCell>
        <mxCell id="i9rXaYjQRLO5KMmcW1bs-11" value="&lt;b&gt;&lt;font face=&quot;Helvetica&quot;&gt;Valida los datos ingresados&lt;/font&gt;&lt;/b&gt;" style="rounded=1;whiteSpace=wrap;html=1;" parent="1c1d494c118603dd-3" vertex="1">
          <mxGeometry x="60" y="420" width="120" height="60" as="geometry" />
        </mxCell>
        <mxCell id="Ft1W5d-y5YYUJEJ2fmy3-3" value="" style="edgeStyle=orthogonalEdgeStyle;rounded=0;orthogonalLoop=1;jettySize=auto;html=1;" parent="1c1d494c118603dd-3" source="i9rXaYjQRLO5KMmcW1bs-14" target="Ft1W5d-y5YYUJEJ2fmy3-2" edge="1">
          <mxGeometry relative="1" as="geometry" />
        </mxCell>
        <mxCell id="i9rXaYjQRLO5KMmcW1bs-14" value="&lt;b&gt;confirma el registro&lt;/b&gt;" style="whiteSpace=wrap;html=1;rounded=1;" parent="1c1d494c118603dd-3" vertex="1">
          <mxGeometry x="80" y="680" width="100" height="60" as="geometry" />
        </mxCell>
        <mxCell id="lYHj6Z10xWIgyVQOfB8K-11" style="edgeStyle=orthogonalEdgeStyle;rounded=0;orthogonalLoop=1;jettySize=auto;html=1;entryX=0.5;entryY=0;entryDx=0;entryDy=0;" edge="1" parent="1c1d494c118603dd-3" source="Ft1W5d-y5YYUJEJ2fmy3-2" target="Ft1W5d-y5YYUJEJ2fmy3-5">
          <mxGeometry relative="1" as="geometry" />
        </mxCell>
        <mxCell id="Ft1W5d-y5YYUJEJ2fmy3-2" value="fin&amp;nbsp;" style="ellipse;whiteSpace=wrap;html=1;rounded=1;" parent="1c1d494c118603dd-3" vertex="1">
          <mxGeometry x="100" y="780" width="60" height="40" as="geometry" />
        </mxCell>
        <mxCell id="Ft1W5d-y5YYUJEJ2fmy3-5" value="" style="ellipse;html=1;shape=endState;fillColor=#000000;strokeColor=#ff0000;" parent="1c1d494c118603dd-3" vertex="1">
          <mxGeometry x="115" y="870" width="30" height="30" as="geometry" />
        </mxCell>
        <mxCell id="lYHj6Z10xWIgyVQOfB8K-6" value="¿Existen errores?" style="rhombus;whiteSpace=wrap;html=1;fontColor=#000000;fillColor=#ffffc0;strokeColor=#ff0000;" vertex="1" parent="1c1d494c118603dd-3">
          <mxGeometry x="50" y="545" width="140" height="70" as="geometry" />
        </mxCell>
        <mxCell id="lYHj6Z10xWIgyVQOfB8K-8" value="no" style="edgeStyle=orthogonalEdgeStyle;html=1;align=left;verticalAlign=top;endArrow=open;endSize=8;strokeColor=#ff0000;rounded=0;entryX=0.5;entryY=0;entryDx=0;entryDy=0;" edge="1" source="lYHj6Z10xWIgyVQOfB8K-6" parent="1c1d494c118603dd-3" target="i9rXaYjQRLO5KMmcW1bs-14">
          <mxGeometry x="-1" relative="1" as="geometry">
            <mxPoint x="120" y="648" as="targetPoint" />
          </mxGeometry>
        </mxCell>
        <mxCell id="lYHj6Z10xWIgyVQOfB8K-7" value="yes" style="edgeStyle=orthogonalEdgeStyle;html=1;align=left;verticalAlign=bottom;endArrow=open;endSize=8;strokeColor=#ff0000;rounded=0;entryX=1;entryY=0.5;entryDx=0;entryDy=0;" edge="1" source="lYHj6Z10xWIgyVQOfB8K-6" parent="1c1d494c118603dd-1" target="i9rXaYjQRLO5KMmcW1bs-17">
          <mxGeometry x="-0.68" relative="1" as="geometry">
            <mxPoint x="510" y="588" as="targetPoint" />
            <Array as="points">
              <mxPoint x="200" y="600" />
              <mxPoint x="200" y="605" />
            </Array>
            <mxPoint as="offset" />
          </mxGeometry>
        </mxCell>
      </root>
    </mxGraphModel>
  </diagram>
  <diagram name="ReqFun2" id="VZBbez97rt4IFk3xLwT5">
    <mxGraphModel dx="1518" dy="669" grid="1" gridSize="10" guides="1" tooltips="1" connect="1" arrows="1" fold="1" page="1" pageScale="1" pageWidth="850" pageHeight="1100" background="none" math="0" shadow="0">
      <root>
        <mxCell id="iyIwvPWkW7Jdl8xCDJBW-0" />
        <mxCell id="iyIwvPWkW7Jdl8xCDJBW-1" parent="iyIwvPWkW7Jdl8xCDJBW-0" />
        <mxCell id="iyIwvPWkW7Jdl8xCDJBW-2" value="Validar que los campos obligatorios" style="swimlane;html=1;childLayout=stackLayout;startSize=20;rounded=0;shadow=0;comic=0;labelBackgroundColor=none;strokeWidth=1;fontFamily=Verdana;fontSize=12;align=center;" parent="iyIwvPWkW7Jdl8xCDJBW-1" vertex="1">
          <mxGeometry x="40" y="20" width="590" height="990" as="geometry" />
        </mxCell>
        <mxCell id="iyIwvPWkW7Jdl8xCDJBW-3" value="Medico&amp;nbsp;" style="swimlane;html=1;startSize=20;" parent="iyIwvPWkW7Jdl8xCDJBW-2" vertex="1">
          <mxGeometry y="20" width="250" height="970" as="geometry" />
        </mxCell>
        <mxCell id="iyIwvPWkW7Jdl8xCDJBW-5" style="edgeStyle=orthogonalEdgeStyle;rounded=0;orthogonalLoop=1;jettySize=auto;html=1;" parent="iyIwvPWkW7Jdl8xCDJBW-3" source="iyIwvPWkW7Jdl8xCDJBW-6" target="iyIwvPWkW7Jdl8xCDJBW-8" edge="1">
          <mxGeometry relative="1" as="geometry" />
        </mxCell>
        <mxCell id="iyIwvPWkW7Jdl8xCDJBW-6" value="&lt;div style=&quot;text-align: start;&quot;&gt;&lt;font face=&quot;Helvetica&quot; style=&quot;font-size: 12px;&quot; color=&quot;#111111&quot;&gt;&lt;span style=&quot;white-space-collapse: preserve; background-color: rgb(247, 247, 247);&quot;&gt;&lt;b style=&quot;&quot;&gt;inicia sesión &lt;/b&gt;&lt;/span&gt;&lt;/font&gt;&lt;/div&gt;" style="rounded=1;whiteSpace=wrap;html=1;shadow=0;comic=0;labelBackgroundColor=none;strokeWidth=1;fontFamily=Verdana;fontSize=12;align=center;arcSize=50;" parent="iyIwvPWkW7Jdl8xCDJBW-3" vertex="1">
          <mxGeometry x="50" y="90" width="100" height="30" as="geometry" />
        </mxCell>
        <mxCell id="iyIwvPWkW7Jdl8xCDJBW-8" value="&lt;b&gt;&lt;font face=&quot;Helvetica&quot;&gt;Selecciona la opción &quot;Registrar Paciente&lt;/font&gt;&lt;/b&gt;" style="rounded=1;whiteSpace=wrap;html=1;" parent="iyIwvPWkW7Jdl8xCDJBW-3" vertex="1">
          <mxGeometry x="45" y="160" width="110" height="70" as="geometry" />
        </mxCell>
        <mxCell id="iyIwvPWkW7Jdl8xCDJBW-11" value="&lt;b&gt;&lt;font face=&quot;Helvetica&quot;&gt;Envía el formulario&lt;/font&gt;&lt;/b&gt;" style="whiteSpace=wrap;html=1;fontFamily=Verdana;rounded=0;shadow=0;comic=0;labelBackgroundColor=none;strokeWidth=1;arcSize=50;" parent="iyIwvPWkW7Jdl8xCDJBW-3" vertex="1">
          <mxGeometry x="50" y="420" width="120" height="60" as="geometry" />
        </mxCell>
        <mxCell id="haDJtzbuqqj2KJ1GpORV-5" style="edgeStyle=orthogonalEdgeStyle;rounded=0;orthogonalLoop=1;jettySize=auto;html=1;entryX=0;entryY=0.5;entryDx=0;entryDy=0;" edge="1" parent="iyIwvPWkW7Jdl8xCDJBW-3" source="iyIwvPWkW7Jdl8xCDJBW-12" target="iyIwvPWkW7Jdl8xCDJBW-11">
          <mxGeometry relative="1" as="geometry">
            <Array as="points">
              <mxPoint x="30" y="585" />
              <mxPoint x="30" y="450" />
            </Array>
          </mxGeometry>
        </mxCell>
        <mxCell id="iyIwvPWkW7Jdl8xCDJBW-12" value="&lt;b&gt;Muestra mensaje de error y solicita completar los campos necesarios&lt;/b&gt;" style="rounded=1;whiteSpace=wrap;html=1;" parent="iyIwvPWkW7Jdl8xCDJBW-3" vertex="1">
          <mxGeometry x="45" y="555" width="120" height="60" as="geometry" />
        </mxCell>
        <mxCell id="iyIwvPWkW7Jdl8xCDJBW-10" value="&lt;b&gt;&lt;font face=&quot;Helvetica&quot;&gt;Llena los datos del paciente&lt;/font&gt;&lt;/b&gt;" style="whiteSpace=wrap;html=1;fontFamily=Verdana;rounded=0;shadow=0;comic=0;labelBackgroundColor=none;strokeWidth=1;arcSize=50;" parent="iyIwvPWkW7Jdl8xCDJBW-3" vertex="1">
          <mxGeometry x="50" y="280" width="120" height="60" as="geometry" />
        </mxCell>
        <mxCell id="iyIwvPWkW7Jdl8xCDJBW-9" value="" style="edgeStyle=orthogonalEdgeStyle;rounded=0;orthogonalLoop=1;jettySize=auto;html=1;" parent="iyIwvPWkW7Jdl8xCDJBW-3" source="iyIwvPWkW7Jdl8xCDJBW-10" target="iyIwvPWkW7Jdl8xCDJBW-11" edge="1">
          <mxGeometry relative="1" as="geometry" />
        </mxCell>
        <mxCell id="haDJtzbuqqj2KJ1GpORV-0" value="" style="ellipse;html=1;shape=startState;fillColor=#000000;strokeColor=#ff0000;" vertex="1" parent="iyIwvPWkW7Jdl8xCDJBW-3">
          <mxGeometry x="85" y="20" width="30" height="30" as="geometry" />
        </mxCell>
        <mxCell id="haDJtzbuqqj2KJ1GpORV-1" value="" style="edgeStyle=orthogonalEdgeStyle;html=1;verticalAlign=bottom;endArrow=open;endSize=8;strokeColor=#ff0000;rounded=0;" edge="1" source="haDJtzbuqqj2KJ1GpORV-0" parent="iyIwvPWkW7Jdl8xCDJBW-3">
          <mxGeometry relative="1" as="geometry">
            <mxPoint x="100" y="90" as="targetPoint" />
          </mxGeometry>
        </mxCell>
        <mxCell id="iyIwvPWkW7Jdl8xCDJBW-13" style="edgeStyle=orthogonalEdgeStyle;rounded=0;orthogonalLoop=1;jettySize=auto;html=1;" parent="iyIwvPWkW7Jdl8xCDJBW-2" source="iyIwvPWkW7Jdl8xCDJBW-8" target="iyIwvPWkW7Jdl8xCDJBW-17" edge="1">
          <mxGeometry relative="1" as="geometry">
            <mxPoint x="310.0000000000002" y="195" as="targetPoint" />
          </mxGeometry>
        </mxCell>
        <mxCell id="iyIwvPWkW7Jdl8xCDJBW-15" style="edgeStyle=orthogonalEdgeStyle;rounded=0;orthogonalLoop=1;jettySize=auto;html=1;" parent="iyIwvPWkW7Jdl8xCDJBW-2" source="iyIwvPWkW7Jdl8xCDJBW-11" target="iyIwvPWkW7Jdl8xCDJBW-19" edge="1">
          <mxGeometry relative="1" as="geometry">
            <mxPoint x="300.0000000000002" y="470" as="targetPoint" />
          </mxGeometry>
        </mxCell>
        <mxCell id="iyIwvPWkW7Jdl8xCDJBW-14" value="" style="edgeStyle=orthogonalEdgeStyle;rounded=0;orthogonalLoop=1;jettySize=auto;html=1;" parent="iyIwvPWkW7Jdl8xCDJBW-2" source="iyIwvPWkW7Jdl8xCDJBW-17" target="iyIwvPWkW7Jdl8xCDJBW-10" edge="1">
          <mxGeometry relative="1" as="geometry">
            <Array as="points">
              <mxPoint x="370" y="330" />
            </Array>
          </mxGeometry>
        </mxCell>
        <mxCell id="haDJtzbuqqj2KJ1GpORV-3" value="no" style="edgeStyle=orthogonalEdgeStyle;html=1;align=left;verticalAlign=bottom;endArrow=open;endSize=8;strokeColor=#ff0000;rounded=0;entryX=1;entryY=0.5;entryDx=0;entryDy=0;" edge="1" source="haDJtzbuqqj2KJ1GpORV-2" parent="iyIwvPWkW7Jdl8xCDJBW-2" target="iyIwvPWkW7Jdl8xCDJBW-12">
          <mxGeometry x="-0.7709" y="-5" relative="1" as="geometry">
            <mxPoint x="510" y="595" as="targetPoint" />
            <mxPoint as="offset" />
          </mxGeometry>
        </mxCell>
        <mxCell id="iyIwvPWkW7Jdl8xCDJBW-16" value="Sistema&amp;nbsp;" style="swimlane;html=1;startSize=20;" parent="iyIwvPWkW7Jdl8xCDJBW-2" vertex="1">
          <mxGeometry x="250" y="20" width="340" height="970" as="geometry" />
        </mxCell>
        <mxCell id="iyIwvPWkW7Jdl8xCDJBW-17" value="&lt;b&gt;&lt;font face=&quot;Helvetica&quot;&gt;Presenta un formulario de registro.&lt;/font&gt;&lt;/b&gt;" style="rounded=0;whiteSpace=wrap;html=1;shadow=0;comic=0;labelBackgroundColor=none;strokeWidth=1;fontFamily=Verdana;fontSize=12;align=center;arcSize=50;" parent="iyIwvPWkW7Jdl8xCDJBW-16" vertex="1">
          <mxGeometry x="70" y="170" width="110" height="50" as="geometry" />
        </mxCell>
        <mxCell id="iyIwvPWkW7Jdl8xCDJBW-18" value="" style="edgeStyle=orthogonalEdgeStyle;rounded=0;orthogonalLoop=1;jettySize=auto;html=1;" parent="iyIwvPWkW7Jdl8xCDJBW-16" source="iyIwvPWkW7Jdl8xCDJBW-19" edge="1">
          <mxGeometry relative="1" as="geometry">
            <mxPoint x="120" y="540" as="targetPoint" />
          </mxGeometry>
        </mxCell>
        <mxCell id="iyIwvPWkW7Jdl8xCDJBW-19" value="&lt;b&gt;&lt;font face=&quot;Helvetica&quot;&gt;Valida campos obligatorios&lt;/font&gt;&lt;/b&gt;" style="rounded=1;whiteSpace=wrap;html=1;" parent="iyIwvPWkW7Jdl8xCDJBW-16" vertex="1">
          <mxGeometry x="60" y="420" width="120" height="60" as="geometry" />
        </mxCell>
        <mxCell id="iyIwvPWkW7Jdl8xCDJBW-23" value="" style="edgeStyle=orthogonalEdgeStyle;rounded=0;orthogonalLoop=1;jettySize=auto;html=1;" parent="iyIwvPWkW7Jdl8xCDJBW-16" source="iyIwvPWkW7Jdl8xCDJBW-24" target="iyIwvPWkW7Jdl8xCDJBW-26" edge="1">
          <mxGeometry relative="1" as="geometry" />
        </mxCell>
        <mxCell id="iyIwvPWkW7Jdl8xCDJBW-24" value="&lt;b&gt;Confirma el registro, con los campos completos&lt;/b&gt;" style="whiteSpace=wrap;html=1;rounded=1;" parent="iyIwvPWkW7Jdl8xCDJBW-16" vertex="1">
          <mxGeometry x="70" y="650" width="100" height="60" as="geometry" />
        </mxCell>
        <mxCell id="iyIwvPWkW7Jdl8xCDJBW-25" style="edgeStyle=orthogonalEdgeStyle;rounded=0;orthogonalLoop=1;jettySize=auto;html=1;" parent="iyIwvPWkW7Jdl8xCDJBW-16" source="iyIwvPWkW7Jdl8xCDJBW-26" edge="1">
          <mxGeometry relative="1" as="geometry">
            <mxPoint x="120.00000000000023" y="870" as="targetPoint" />
          </mxGeometry>
        </mxCell>
        <mxCell id="iyIwvPWkW7Jdl8xCDJBW-26" value="&lt;b&gt;fin&amp;nbsp;&lt;/b&gt;" style="ellipse;whiteSpace=wrap;html=1;rounded=1;" parent="iyIwvPWkW7Jdl8xCDJBW-16" vertex="1">
          <mxGeometry x="90" y="770" width="60" height="40" as="geometry" />
        </mxCell>
        <mxCell id="iyIwvPWkW7Jdl8xCDJBW-27" value="" style="ellipse;html=1;shape=endState;fillColor=#000000;strokeColor=#ff0000;" parent="iyIwvPWkW7Jdl8xCDJBW-16" vertex="1">
          <mxGeometry x="105" y="870" width="30" height="30" as="geometry" />
        </mxCell>
        <mxCell id="haDJtzbuqqj2KJ1GpORV-2" value="&lt;b&gt;¿Campos Completos?&lt;/b&gt;" style="rhombus;whiteSpace=wrap;html=1;fontColor=#000000;fillColor=#ffffc0;strokeColor=#ff0000;" vertex="1" parent="iyIwvPWkW7Jdl8xCDJBW-16">
          <mxGeometry x="70" y="540" width="100" height="65" as="geometry" />
        </mxCell>
        <mxCell id="haDJtzbuqqj2KJ1GpORV-4" value="yes" style="edgeStyle=orthogonalEdgeStyle;html=1;align=left;verticalAlign=top;endArrow=open;endSize=8;strokeColor=#ff0000;rounded=0;" edge="1" source="haDJtzbuqqj2KJ1GpORV-2" parent="iyIwvPWkW7Jdl8xCDJBW-16">
          <mxGeometry x="-1" relative="1" as="geometry">
            <mxPoint x="120" y="655" as="targetPoint" />
          </mxGeometry>
        </mxCell>
      </root>
    </mxGraphModel>
  </diagram>
  <diagram name="ReqFun3" id="djnIig2PM4jrrPuJ4IOB">
    <mxGraphModel dx="744" dy="814" grid="1" gridSize="10" guides="1" tooltips="1" connect="1" arrows="1" fold="1" page="1" pageScale="1" pageWidth="850" pageHeight="1100" background="none" math="0" shadow="0">
      <root>
        <mxCell id="jtLnbRovvgsW4G1lxvW0-0" />
        <mxCell id="jtLnbRovvgsW4G1lxvW0-1" parent="jtLnbRovvgsW4G1lxvW0-0" />
        <mxCell id="jtLnbRovvgsW4G1lxvW0-2" value="Generar un número de identificación único" style="swimlane;html=1;childLayout=stackLayout;startSize=20;rounded=0;shadow=0;comic=0;labelBackgroundColor=none;strokeWidth=1;fontFamily=Verdana;fontSize=12;align=center;" parent="jtLnbRovvgsW4G1lxvW0-1" vertex="1">
          <mxGeometry x="80" y="20" width="590" height="990" as="geometry" />
        </mxCell>
        <mxCell id="jtLnbRovvgsW4G1lxvW0-13" style="edgeStyle=orthogonalEdgeStyle;rounded=0;orthogonalLoop=1;jettySize=auto;html=1;" parent="jtLnbRovvgsW4G1lxvW0-2" source="jtLnbRovvgsW4G1lxvW0-8" target="jtLnbRovvgsW4G1lxvW0-16" edge="1">
          <mxGeometry relative="1" as="geometry">
            <mxPoint x="310.0000000000002" y="195" as="targetPoint" />
          </mxGeometry>
        </mxCell>
        <mxCell id="jtLnbRovvgsW4G1lxvW0-14" style="edgeStyle=orthogonalEdgeStyle;rounded=0;orthogonalLoop=1;jettySize=auto;html=1;" parent="jtLnbRovvgsW4G1lxvW0-2" source="jtLnbRovvgsW4G1lxvW0-9" target="jtLnbRovvgsW4G1lxvW0-18" edge="1">
          <mxGeometry relative="1" as="geometry">
            <mxPoint x="300.0000000000002" y="470" as="targetPoint" />
          </mxGeometry>
        </mxCell>
        <mxCell id="jtLnbRovvgsW4G1lxvW0-28" value="" style="edgeStyle=orthogonalEdgeStyle;rounded=0;orthogonalLoop=1;jettySize=auto;html=1;" parent="jtLnbRovvgsW4G1lxvW0-2" source="jtLnbRovvgsW4G1lxvW0-16" target="jtLnbRovvgsW4G1lxvW0-11" edge="1">
          <mxGeometry relative="1" as="geometry">
            <Array as="points">
              <mxPoint x="370" y="330" />
            </Array>
          </mxGeometry>
        </mxCell>
        <mxCell id="1R-N9k64jxpR-_0hPsba-1" value="yes" style="edgeStyle=orthogonalEdgeStyle;html=1;align=left;verticalAlign=bottom;endArrow=open;endSize=8;strokeColor=#ff0000;rounded=0;" edge="1" source="1R-N9k64jxpR-_0hPsba-0" parent="jtLnbRovvgsW4G1lxvW0-2" target="jtLnbRovvgsW4G1lxvW0-10">
          <mxGeometry x="-0.6774" y="-5" relative="1" as="geometry">
            <mxPoint x="505" y="595" as="targetPoint" />
            <mxPoint as="offset" />
          </mxGeometry>
        </mxCell>
        <mxCell id="jtLnbRovvgsW4G1lxvW0-3" value="Medico&amp;nbsp;" style="swimlane;html=1;startSize=20;" parent="jtLnbRovvgsW4G1lxvW0-2" vertex="1">
          <mxGeometry y="20" width="250" height="970" as="geometry" />
        </mxCell>
        <mxCell id="jtLnbRovvgsW4G1lxvW0-5" style="edgeStyle=orthogonalEdgeStyle;rounded=0;orthogonalLoop=1;jettySize=auto;html=1;" parent="jtLnbRovvgsW4G1lxvW0-3" source="jtLnbRovvgsW4G1lxvW0-6" target="jtLnbRovvgsW4G1lxvW0-8" edge="1">
          <mxGeometry relative="1" as="geometry" />
        </mxCell>
        <mxCell id="jtLnbRovvgsW4G1lxvW0-6" value="&lt;div style=&quot;text-align: start;&quot;&gt;&lt;font face=&quot;Helvetica&quot; style=&quot;font-size: 12px;&quot; color=&quot;#111111&quot;&gt;&lt;span style=&quot;white-space-collapse: preserve; background-color: rgb(247, 247, 247);&quot;&gt;&lt;b style=&quot;&quot;&gt;inicia sesión &lt;/b&gt;&lt;/span&gt;&lt;/font&gt;&lt;/div&gt;" style="rounded=1;whiteSpace=wrap;html=1;shadow=0;comic=0;labelBackgroundColor=none;strokeWidth=1;fontFamily=Verdana;fontSize=12;align=center;arcSize=50;" parent="jtLnbRovvgsW4G1lxvW0-3" vertex="1">
          <mxGeometry x="50" y="90" width="100" height="30" as="geometry" />
        </mxCell>
        <mxCell id="jtLnbRovvgsW4G1lxvW0-8" value="&lt;b&gt;Selecciona la opción &quot;Registrar Paciente&lt;/b&gt;" style="rounded=1;whiteSpace=wrap;html=1;" parent="jtLnbRovvgsW4G1lxvW0-3" vertex="1">
          <mxGeometry x="45" y="160" width="110" height="70" as="geometry" />
        </mxCell>
        <mxCell id="jtLnbRovvgsW4G1lxvW0-9" value="&lt;font style=&quot;&quot; face=&quot;Helvetica&quot;&gt;&lt;b&gt;Envía el formulario&lt;/b&gt;&lt;/font&gt;" style="whiteSpace=wrap;html=1;fontFamily=Verdana;rounded=0;shadow=0;comic=0;labelBackgroundColor=none;strokeWidth=1;arcSize=50;" parent="jtLnbRovvgsW4G1lxvW0-3" vertex="1">
          <mxGeometry x="50" y="420" width="120" height="60" as="geometry" />
        </mxCell>
        <mxCell id="1R-N9k64jxpR-_0hPsba-3" style="edgeStyle=orthogonalEdgeStyle;rounded=0;orthogonalLoop=1;jettySize=auto;html=1;entryX=0;entryY=0.5;entryDx=0;entryDy=0;" edge="1" parent="jtLnbRovvgsW4G1lxvW0-3" source="jtLnbRovvgsW4G1lxvW0-10" target="jtLnbRovvgsW4G1lxvW0-9">
          <mxGeometry relative="1" as="geometry">
            <Array as="points">
              <mxPoint x="30" y="575" />
              <mxPoint x="30" y="450" />
            </Array>
          </mxGeometry>
        </mxCell>
        <mxCell id="jtLnbRovvgsW4G1lxvW0-10" value="&lt;b&gt;&lt;font face=&quot;Helvetica&quot;&gt;Muestra error en el proceso de validación de datos o identificador y solicita corregir el error&lt;/font&gt;&lt;/b&gt;" style="rounded=1;whiteSpace=wrap;html=1;" parent="jtLnbRovvgsW4G1lxvW0-3" vertex="1">
          <mxGeometry x="60" y="527.5" width="120" height="95" as="geometry" />
        </mxCell>
        <mxCell id="jtLnbRovvgsW4G1lxvW0-11" value="&lt;b&gt;&lt;font face=&quot;Helvetica&quot;&gt;Llena los datos del paciente, agregando un identificador unico&lt;/font&gt;&lt;/b&gt;" style="whiteSpace=wrap;html=1;fontFamily=Verdana;rounded=0;shadow=0;comic=0;labelBackgroundColor=none;strokeWidth=1;arcSize=50;" parent="jtLnbRovvgsW4G1lxvW0-3" vertex="1">
          <mxGeometry x="50" y="280" width="120" height="60" as="geometry" />
        </mxCell>
        <mxCell id="jtLnbRovvgsW4G1lxvW0-12" value="" style="edgeStyle=orthogonalEdgeStyle;rounded=0;orthogonalLoop=1;jettySize=auto;html=1;" parent="jtLnbRovvgsW4G1lxvW0-3" source="jtLnbRovvgsW4G1lxvW0-11" target="jtLnbRovvgsW4G1lxvW0-9" edge="1">
          <mxGeometry relative="1" as="geometry" />
        </mxCell>
        <mxCell id="O7z45iHhE8zaarw16Ymn-0" value="" style="ellipse;html=1;shape=startState;fillColor=#000000;strokeColor=#ff0000;" vertex="1" parent="jtLnbRovvgsW4G1lxvW0-3">
          <mxGeometry x="85" y="20" width="30" height="30" as="geometry" />
        </mxCell>
        <mxCell id="O7z45iHhE8zaarw16Ymn-1" value="" style="edgeStyle=orthogonalEdgeStyle;html=1;verticalAlign=bottom;endArrow=open;endSize=8;strokeColor=#ff0000;rounded=0;entryX=0.5;entryY=0;entryDx=0;entryDy=0;" edge="1" source="O7z45iHhE8zaarw16Ymn-0" parent="jtLnbRovvgsW4G1lxvW0-3" target="jtLnbRovvgsW4G1lxvW0-6">
          <mxGeometry relative="1" as="geometry">
            <mxPoint x="200" y="80" as="targetPoint" />
          </mxGeometry>
        </mxCell>
        <mxCell id="jtLnbRovvgsW4G1lxvW0-15" value="Sistema&amp;nbsp;" style="swimlane;html=1;startSize=20;" parent="jtLnbRovvgsW4G1lxvW0-2" vertex="1">
          <mxGeometry x="250" y="20" width="340" height="970" as="geometry" />
        </mxCell>
        <mxCell id="jtLnbRovvgsW4G1lxvW0-16" value="&lt;b&gt;&lt;font face=&quot;Helvetica&quot;&gt;Presenta un formulario de registro.&lt;/font&gt;&lt;/b&gt;" style="rounded=0;whiteSpace=wrap;html=1;shadow=0;comic=0;labelBackgroundColor=none;strokeWidth=1;fontFamily=Verdana;fontSize=12;align=center;arcSize=50;" parent="jtLnbRovvgsW4G1lxvW0-15" vertex="1">
          <mxGeometry x="70" y="170" width="110" height="50" as="geometry" />
        </mxCell>
        <mxCell id="jtLnbRovvgsW4G1lxvW0-17" value="" style="edgeStyle=orthogonalEdgeStyle;rounded=0;orthogonalLoop=1;jettySize=auto;html=1;" parent="jtLnbRovvgsW4G1lxvW0-15" source="jtLnbRovvgsW4G1lxvW0-18" edge="1">
          <mxGeometry relative="1" as="geometry">
            <mxPoint x="120" y="540" as="targetPoint" />
          </mxGeometry>
        </mxCell>
        <mxCell id="jtLnbRovvgsW4G1lxvW0-18" value="&lt;font style=&quot;&quot; face=&quot;Helvetica&quot;&gt;&lt;b&gt;Valida los datos ingresados y el identificador unico&amp;nbsp;&lt;/b&gt;&lt;/font&gt;" style="rounded=1;whiteSpace=wrap;html=1;" parent="jtLnbRovvgsW4G1lxvW0-15" vertex="1">
          <mxGeometry x="60" y="420" width="120" height="60" as="geometry" />
        </mxCell>
        <mxCell id="BxhQOy2XynP5VSv1ygn5-4" value="" style="edgeStyle=orthogonalEdgeStyle;rounded=0;orthogonalLoop=1;jettySize=auto;html=1;" parent="jtLnbRovvgsW4G1lxvW0-15" source="jtLnbRovvgsW4G1lxvW0-23" edge="1">
          <mxGeometry relative="1" as="geometry">
            <mxPoint x="120" y="755" as="targetPoint" />
          </mxGeometry>
        </mxCell>
        <mxCell id="jtLnbRovvgsW4G1lxvW0-23" value="&lt;b&gt;Confirma los datos y Genera un ID único para el paciente&lt;/b&gt;" style="whiteSpace=wrap;html=1;rounded=1;" parent="jtLnbRovvgsW4G1lxvW0-15" vertex="1">
          <mxGeometry x="70" y="655" width="100" height="60" as="geometry" />
        </mxCell>
        <mxCell id="BxhQOy2XynP5VSv1ygn5-6" style="edgeStyle=orthogonalEdgeStyle;rounded=0;orthogonalLoop=1;jettySize=auto;html=1;entryX=0.5;entryY=0;entryDx=0;entryDy=0;" parent="jtLnbRovvgsW4G1lxvW0-15" source="jtLnbRovvgsW4G1lxvW0-25" edge="1">
          <mxGeometry relative="1" as="geometry">
            <mxPoint x="120" y="905" as="targetPoint" />
          </mxGeometry>
        </mxCell>
        <mxCell id="jtLnbRovvgsW4G1lxvW0-25" value="&lt;b&gt;fin&amp;nbsp;&lt;/b&gt;" style="ellipse;whiteSpace=wrap;html=1;rounded=1;" parent="jtLnbRovvgsW4G1lxvW0-15" vertex="1">
          <mxGeometry x="90" y="845" width="60" height="40" as="geometry" />
        </mxCell>
        <mxCell id="jtLnbRovvgsW4G1lxvW0-26" value="" style="ellipse;html=1;shape=endState;fillColor=#000000;strokeColor=#ff0000;" parent="jtLnbRovvgsW4G1lxvW0-15" vertex="1">
          <mxGeometry x="105" y="910" width="30" height="30" as="geometry" />
        </mxCell>
        <mxCell id="BxhQOy2XynP5VSv1ygn5-5" style="edgeStyle=orthogonalEdgeStyle;rounded=0;orthogonalLoop=1;jettySize=auto;html=1;entryX=0.5;entryY=0;entryDx=0;entryDy=0;" parent="jtLnbRovvgsW4G1lxvW0-15" target="jtLnbRovvgsW4G1lxvW0-25" edge="1">
          <mxGeometry relative="1" as="geometry">
            <mxPoint x="120" y="815" as="sourcePoint" />
          </mxGeometry>
        </mxCell>
        <mxCell id="BxhQOy2XynP5VSv1ygn5-3" value="&lt;b&gt;Registra al paciente y confirma el registro&lt;/b&gt;" style="whiteSpace=wrap;html=1;rounded=1;" parent="jtLnbRovvgsW4G1lxvW0-15" vertex="1">
          <mxGeometry x="65" y="750" width="120" height="60" as="geometry" />
        </mxCell>
        <mxCell id="1R-N9k64jxpR-_0hPsba-0" value="&lt;b&gt;¿Existen errores en los datos?&lt;/b&gt;" style="rhombus;whiteSpace=wrap;html=1;fontColor=#000000;fillColor=#ffffc0;strokeColor=#ff0000;" vertex="1" parent="jtLnbRovvgsW4G1lxvW0-15">
          <mxGeometry x="67.5" y="537.5" width="105" height="75" as="geometry" />
        </mxCell>
        <mxCell id="1R-N9k64jxpR-_0hPsba-2" value="no" style="edgeStyle=orthogonalEdgeStyle;html=1;align=left;verticalAlign=top;endArrow=open;endSize=8;strokeColor=#ff0000;rounded=0;entryX=0.5;entryY=0;entryDx=0;entryDy=0;" edge="1" source="1R-N9k64jxpR-_0hPsba-0" parent="jtLnbRovvgsW4G1lxvW0-15" target="jtLnbRovvgsW4G1lxvW0-23">
          <mxGeometry x="-1" relative="1" as="geometry">
            <mxPoint x="115" y="655" as="targetPoint" />
          </mxGeometry>
        </mxCell>
      </root>
    </mxGraphModel>
  </diagram>
  <diagram name="ReqFun4" id="hPVaaH-7OSCMTe5cF4HO">
    <mxGraphModel dx="868" dy="950" grid="1" gridSize="10" guides="1" tooltips="1" connect="1" arrows="1" fold="1" page="1" pageScale="1" pageWidth="850" pageHeight="1100" background="none" math="0" shadow="0">
      <root>
        <mxCell id="tHJlK5d8wuFc-utGYvbE-0" />
        <mxCell id="tHJlK5d8wuFc-utGYvbE-1" parent="tHJlK5d8wuFc-utGYvbE-0" />
        <mxCell id="tHJlK5d8wuFc-utGYvbE-2" value="Visualización de historial clínico" style="swimlane;html=1;childLayout=stackLayout;startSize=20;rounded=0;shadow=0;comic=0;labelBackgroundColor=none;strokeWidth=1;fontFamily=Verdana;fontSize=12;align=center;" parent="tHJlK5d8wuFc-utGYvbE-1" vertex="1">
          <mxGeometry x="80" y="20" width="550" height="990" as="geometry" />
        </mxCell>
        <mxCell id="pOq4J-9rpA1pHhCq58uy-2" style="edgeStyle=orthogonalEdgeStyle;rounded=0;orthogonalLoop=1;jettySize=auto;html=1;entryX=0;entryY=0.5;entryDx=0;entryDy=0;" parent="tHJlK5d8wuFc-utGYvbE-2" source="tHJlK5d8wuFc-utGYvbE-11" target="tHJlK5d8wuFc-utGYvbE-17" edge="1">
          <mxGeometry relative="1" as="geometry" />
        </mxCell>
        <mxCell id="tHJlK5d8wuFc-utGYvbE-3" value="Medico&amp;nbsp;" style="swimlane;html=1;startSize=20;" parent="tHJlK5d8wuFc-utGYvbE-2" vertex="1">
          <mxGeometry y="20" width="250" height="970" as="geometry" />
        </mxCell>
        <mxCell id="faDSz1pQ_FdNSSJFMJEy-5" style="edgeStyle=orthogonalEdgeStyle;rounded=0;orthogonalLoop=1;jettySize=auto;html=1;" parent="tHJlK5d8wuFc-utGYvbE-3" source="tHJlK5d8wuFc-utGYvbE-6" edge="1">
          <mxGeometry relative="1" as="geometry">
            <mxPoint x="100" y="150" as="targetPoint" />
          </mxGeometry>
        </mxCell>
        <mxCell id="tHJlK5d8wuFc-utGYvbE-6" value="&lt;div style=&quot;text-align: start;&quot;&gt;&lt;font face=&quot;Helvetica&quot; style=&quot;font-size: 12px;&quot; color=&quot;#111111&quot;&gt;&lt;span style=&quot;white-space-collapse: preserve; background-color: rgb(247, 247, 247);&quot;&gt;&lt;b style=&quot;&quot;&gt;inicia sesión &lt;/b&gt;&lt;/span&gt;&lt;/font&gt;&lt;/div&gt;" style="rounded=1;whiteSpace=wrap;html=1;shadow=0;comic=0;labelBackgroundColor=none;strokeWidth=1;fontFamily=Verdana;fontSize=12;align=center;arcSize=50;" parent="tHJlK5d8wuFc-utGYvbE-3" vertex="1">
          <mxGeometry x="50" y="90" width="100" height="30" as="geometry" />
        </mxCell>
        <mxCell id="pOq4J-9rpA1pHhCq58uy-1" style="edgeStyle=orthogonalEdgeStyle;rounded=0;orthogonalLoop=1;jettySize=auto;html=1;" parent="tHJlK5d8wuFc-utGYvbE-3" source="tHJlK5d8wuFc-utGYvbE-8" edge="1">
          <mxGeometry relative="1" as="geometry">
            <mxPoint x="102.5" y="260" as="targetPoint" />
          </mxGeometry>
        </mxCell>
        <mxCell id="tHJlK5d8wuFc-utGYvbE-8" value="&lt;b&gt;Selecciona la opción &quot;Ver Historia Clinica&lt;/b&gt;" style="rounded=1;whiteSpace=wrap;html=1;" parent="tHJlK5d8wuFc-utGYvbE-3" vertex="1">
          <mxGeometry x="50" y="150" width="105" height="70" as="geometry" />
        </mxCell>
        <mxCell id="wF3EFRWrw7xOy1wBDosT-6" style="edgeStyle=orthogonalEdgeStyle;rounded=0;orthogonalLoop=1;jettySize=auto;html=1;entryX=0;entryY=0.5;entryDx=0;entryDy=0;" edge="1" parent="tHJlK5d8wuFc-utGYvbE-3" source="tHJlK5d8wuFc-utGYvbE-10" target="tHJlK5d8wuFc-utGYvbE-11">
          <mxGeometry relative="1" as="geometry">
            <Array as="points">
              <mxPoint x="25" y="480" />
              <mxPoint x="25" y="290" />
            </Array>
          </mxGeometry>
        </mxCell>
        <mxCell id="wF3EFRWrw7xOy1wBDosT-8" value="" style="edgeStyle=orthogonalEdgeStyle;rounded=0;orthogonalLoop=1;jettySize=auto;html=1;" edge="1" parent="tHJlK5d8wuFc-utGYvbE-3" source="tHJlK5d8wuFc-utGYvbE-10" target="wF3EFRWrw7xOy1wBDosT-7">
          <mxGeometry relative="1" as="geometry" />
        </mxCell>
        <mxCell id="tHJlK5d8wuFc-utGYvbE-10" value="&lt;b&gt;Historial Clínico no encontrado, ingrese identificación correcta&lt;/b&gt;" style="rounded=1;whiteSpace=wrap;html=1;" parent="tHJlK5d8wuFc-utGYvbE-3" vertex="1">
          <mxGeometry x="65" y="450" width="120" height="60" as="geometry" />
        </mxCell>
        <mxCell id="tHJlK5d8wuFc-utGYvbE-11" value="&lt;b&gt;&lt;font face=&quot;Helvetica&quot;&gt;Ingresa la identificación del paciente&lt;/font&gt;&lt;/b&gt;" style="whiteSpace=wrap;html=1;fontFamily=Verdana;rounded=0;shadow=0;comic=0;labelBackgroundColor=none;strokeWidth=1;arcSize=50;" parent="tHJlK5d8wuFc-utGYvbE-3" vertex="1">
          <mxGeometry x="45" y="260" width="120" height="60" as="geometry" />
        </mxCell>
        <mxCell id="wF3EFRWrw7xOy1wBDosT-0" value="" style="ellipse;html=1;shape=startState;fillColor=#000000;strokeColor=#ff0000;" vertex="1" parent="tHJlK5d8wuFc-utGYvbE-3">
          <mxGeometry x="85" y="30" width="30" height="30" as="geometry" />
        </mxCell>
        <mxCell id="wF3EFRWrw7xOy1wBDosT-1" value="" style="edgeStyle=orthogonalEdgeStyle;html=1;verticalAlign=bottom;endArrow=open;endSize=8;strokeColor=#ff0000;rounded=0;entryX=0.5;entryY=0;entryDx=0;entryDy=0;" edge="1" source="wF3EFRWrw7xOy1wBDosT-0" parent="tHJlK5d8wuFc-utGYvbE-3" target="tHJlK5d8wuFc-utGYvbE-6">
          <mxGeometry relative="1" as="geometry">
            <mxPoint x="150" y="70" as="targetPoint" />
          </mxGeometry>
        </mxCell>
        <mxCell id="wF3EFRWrw7xOy1wBDosT-7" value="&lt;b&gt;Cancelar Operación&lt;/b&gt;" style="whiteSpace=wrap;html=1;rounded=1;" vertex="1" parent="tHJlK5d8wuFc-utGYvbE-3">
          <mxGeometry x="80" y="590" width="90" height="60" as="geometry" />
        </mxCell>
        <mxCell id="wF3EFRWrw7xOy1wBDosT-3" value="no" style="edgeStyle=orthogonalEdgeStyle;html=1;align=left;verticalAlign=bottom;endArrow=open;endSize=8;strokeColor=#ff0000;rounded=0;entryX=1;entryY=0.5;entryDx=0;entryDy=0;" edge="1" source="wF3EFRWrw7xOy1wBDosT-2" parent="tHJlK5d8wuFc-utGYvbE-2" target="tHJlK5d8wuFc-utGYvbE-10">
          <mxGeometry x="-0.5862" relative="1" as="geometry">
            <mxPoint x="515" y="490" as="targetPoint" />
            <mxPoint as="offset" />
          </mxGeometry>
        </mxCell>
        <mxCell id="tHJlK5d8wuFc-utGYvbE-16" value="Sistema&amp;nbsp;" style="swimlane;html=1;startSize=20;" parent="tHJlK5d8wuFc-utGYvbE-2" vertex="1">
          <mxGeometry x="250" y="20" width="300" height="970" as="geometry" />
        </mxCell>
        <mxCell id="faDSz1pQ_FdNSSJFMJEy-4" style="edgeStyle=orthogonalEdgeStyle;rounded=0;orthogonalLoop=1;jettySize=auto;html=1;" parent="tHJlK5d8wuFc-utGYvbE-16" source="tHJlK5d8wuFc-utGYvbE-17" edge="1">
          <mxGeometry relative="1" as="geometry">
            <mxPoint x="125" y="350" as="targetPoint" />
          </mxGeometry>
        </mxCell>
        <mxCell id="tHJlK5d8wuFc-utGYvbE-17" value="&lt;b&gt;&lt;font face=&quot;Helvetica&quot;&gt;Verifica la identificación del paciente&lt;/font&gt;&lt;/b&gt;" style="rounded=0;whiteSpace=wrap;html=1;shadow=0;comic=0;labelBackgroundColor=none;strokeWidth=1;fontFamily=Verdana;fontSize=12;align=center;arcSize=50;" parent="tHJlK5d8wuFc-utGYvbE-16" vertex="1">
          <mxGeometry x="70" y="265" width="110" height="50" as="geometry" />
        </mxCell>
        <mxCell id="tHJlK5d8wuFc-utGYvbE-24" value="&lt;b&gt;Muestra el historial al médico&lt;/b&gt;" style="whiteSpace=wrap;html=1;rounded=1;" parent="tHJlK5d8wuFc-utGYvbE-16" vertex="1">
          <mxGeometry x="91.25" y="580" width="80" height="60" as="geometry" />
        </mxCell>
        <mxCell id="tHJlK5d8wuFc-utGYvbE-25" style="edgeStyle=orthogonalEdgeStyle;rounded=0;orthogonalLoop=1;jettySize=auto;html=1;entryX=0.5;entryY=0;entryDx=0;entryDy=0;" parent="tHJlK5d8wuFc-utGYvbE-16" source="tHJlK5d8wuFc-utGYvbE-26" target="tHJlK5d8wuFc-utGYvbE-27" edge="1">
          <mxGeometry relative="1" as="geometry" />
        </mxCell>
        <mxCell id="tHJlK5d8wuFc-utGYvbE-26" value="&lt;b&gt;fin&amp;nbsp;&lt;/b&gt;" style="ellipse;whiteSpace=wrap;html=1;rounded=1;" parent="tHJlK5d8wuFc-utGYvbE-16" vertex="1">
          <mxGeometry x="101.25" y="670" width="60" height="40" as="geometry" />
        </mxCell>
        <mxCell id="tHJlK5d8wuFc-utGYvbE-27" value="" style="ellipse;html=1;shape=endState;fillColor=#000000;strokeColor=#ff0000;" parent="tHJlK5d8wuFc-utGYvbE-16" vertex="1">
          <mxGeometry x="116.25" y="730" width="30" height="30" as="geometry" />
        </mxCell>
        <mxCell id="tHJlK5d8wuFc-utGYvbE-29" style="edgeStyle=orthogonalEdgeStyle;rounded=0;orthogonalLoop=1;jettySize=auto;html=1;entryX=0.5;entryY=0;entryDx=0;entryDy=0;" parent="tHJlK5d8wuFc-utGYvbE-16" target="tHJlK5d8wuFc-utGYvbE-26" edge="1">
          <mxGeometry relative="1" as="geometry">
            <mxPoint x="131.25" y="640" as="sourcePoint" />
          </mxGeometry>
        </mxCell>
        <mxCell id="faDSz1pQ_FdNSSJFMJEy-2" style="edgeStyle=orthogonalEdgeStyle;rounded=0;orthogonalLoop=1;jettySize=auto;html=1;entryX=0.5;entryY=0;entryDx=0;entryDy=0;" parent="tHJlK5d8wuFc-utGYvbE-16" source="tHJlK5d8wuFc-utGYvbE-9" edge="1">
          <mxGeometry relative="1" as="geometry">
            <mxPoint x="125" y="450" as="targetPoint" />
          </mxGeometry>
        </mxCell>
        <mxCell id="tHJlK5d8wuFc-utGYvbE-9" value="&lt;b&gt;&lt;font face=&quot;Helvetica&quot;&gt;Recupera el historial completo del paciente&lt;/font&gt;&lt;/b&gt;" style="whiteSpace=wrap;html=1;fontFamily=Verdana;rounded=0;shadow=0;comic=0;labelBackgroundColor=none;strokeWidth=1;arcSize=50;" parent="tHJlK5d8wuFc-utGYvbE-16" vertex="1">
          <mxGeometry x="65" y="350" width="120" height="60" as="geometry" />
        </mxCell>
        <mxCell id="wF3EFRWrw7xOy1wBDosT-2" value="¿Existe Historial Clinico?" style="rhombus;whiteSpace=wrap;html=1;fontColor=#000000;fillColor=#ffffc0;strokeColor=#ff0000;" vertex="1" parent="tHJlK5d8wuFc-utGYvbE-16">
          <mxGeometry x="70" y="450" width="122.5" height="60" as="geometry" />
        </mxCell>
        <mxCell id="wF3EFRWrw7xOy1wBDosT-4" value="yes" style="edgeStyle=orthogonalEdgeStyle;html=1;align=left;verticalAlign=top;endArrow=open;endSize=8;strokeColor=#ff0000;rounded=0;entryX=0.5;entryY=0;entryDx=0;entryDy=0;" edge="1" source="wF3EFRWrw7xOy1wBDosT-2" parent="tHJlK5d8wuFc-utGYvbE-16" target="tHJlK5d8wuFc-utGYvbE-24">
          <mxGeometry x="-1" relative="1" as="geometry">
            <mxPoint x="125" y="550" as="targetPoint" />
          </mxGeometry>
        </mxCell>
        <mxCell id="wF3EFRWrw7xOy1wBDosT-10" style="edgeStyle=orthogonalEdgeStyle;rounded=0;orthogonalLoop=1;jettySize=auto;html=1;entryX=0;entryY=0.5;entryDx=0;entryDy=0;" edge="1" parent="tHJlK5d8wuFc-utGYvbE-2" source="wF3EFRWrw7xOy1wBDosT-7" target="tHJlK5d8wuFc-utGYvbE-27">
          <mxGeometry relative="1" as="geometry">
            <Array as="points">
              <mxPoint x="125" y="765" />
            </Array>
          </mxGeometry>
        </mxCell>
      </root>
    </mxGraphModel>
  </diagram>
  <diagram name="ReqFun5" id="sieBEvE7be39M0PBn43c">
    <mxGraphModel dx="802" dy="877" grid="1" gridSize="10" guides="1" tooltips="1" connect="1" arrows="1" fold="1" page="1" pageScale="1" pageWidth="850" pageHeight="1100" background="none" math="0" shadow="0">
      <root>
        <mxCell id="LsBLEycZu8wHF8fiRbAB-0" />
        <mxCell id="LsBLEycZu8wHF8fiRbAB-1" parent="LsBLEycZu8wHF8fiRbAB-0" />
        <mxCell id="LsBLEycZu8wHF8fiRbAB-2" value="Modificación de registros médicos" style="swimlane;html=1;childLayout=stackLayout;startSize=20;rounded=0;shadow=0;comic=0;labelBackgroundColor=none;strokeWidth=1;fontFamily=Verdana;fontSize=12;align=center;" parent="LsBLEycZu8wHF8fiRbAB-1" vertex="1">
          <mxGeometry x="120" y="50" width="752.5" height="1320" as="geometry" />
        </mxCell>
        <mxCell id="s5VFjWRD4oIK-I60fPWd-3" style="edgeStyle=orthogonalEdgeStyle;rounded=0;orthogonalLoop=1;jettySize=auto;html=1;entryX=0;entryY=0.5;entryDx=0;entryDy=0;" parent="LsBLEycZu8wHF8fiRbAB-2" source="LsBLEycZu8wHF8fiRbAB-11" target="LsBLEycZu8wHF8fiRbAB-16" edge="1">
          <mxGeometry relative="1" as="geometry" />
        </mxCell>
        <mxCell id="s5VFjWRD4oIK-I60fPWd-4" style="edgeStyle=orthogonalEdgeStyle;rounded=0;orthogonalLoop=1;jettySize=auto;html=1;entryX=1;entryY=0.5;entryDx=0;entryDy=0;" parent="LsBLEycZu8wHF8fiRbAB-2" source="LsBLEycZu8wHF8fiRbAB-16" target="s5VFjWRD4oIK-I60fPWd-0" edge="1">
          <mxGeometry relative="1" as="geometry">
            <Array as="points">
              <mxPoint x="485" y="410" />
            </Array>
          </mxGeometry>
        </mxCell>
        <mxCell id="EdzxDMMUwvk8e3eNhYw5-4" value="no" style="edgeStyle=orthogonalEdgeStyle;html=1;align=left;verticalAlign=bottom;endArrow=open;endSize=8;strokeColor=#ff0000;rounded=0;entryX=1;entryY=0.5;entryDx=0;entryDy=0;" edge="1" source="EdzxDMMUwvk8e3eNhYw5-3" parent="LsBLEycZu8wHF8fiRbAB-2" target="s5VFjWRD4oIK-I60fPWd-16">
          <mxGeometry x="-0.8437" relative="1" as="geometry">
            <mxPoint x="625" y="480" as="targetPoint" />
            <mxPoint as="offset" />
          </mxGeometry>
        </mxCell>
        <mxCell id="EdzxDMMUwvk8e3eNhYw5-6" style="edgeStyle=orthogonalEdgeStyle;rounded=0;orthogonalLoop=1;jettySize=auto;html=1;entryX=0;entryY=0.5;entryDx=0;entryDy=0;" edge="1" parent="LsBLEycZu8wHF8fiRbAB-2" source="s5VFjWRD4oIK-I60fPWd-16" target="LsBLEycZu8wHF8fiRbAB-22">
          <mxGeometry relative="1" as="geometry">
            <Array as="points">
              <mxPoint x="70" y="1000" />
              <mxPoint x="460" y="1000" />
              <mxPoint x="460" y="995" />
            </Array>
          </mxGeometry>
        </mxCell>
        <mxCell id="EdzxDMMUwvk8e3eNhYw5-7" style="edgeStyle=orthogonalEdgeStyle;rounded=0;orthogonalLoop=1;jettySize=auto;html=1;entryX=0.5;entryY=0;entryDx=0;entryDy=0;" edge="1" parent="LsBLEycZu8wHF8fiRbAB-2" source="s5VFjWRD4oIK-I60fPWd-0" target="EdzxDMMUwvk8e3eNhYw5-3">
          <mxGeometry relative="1" as="geometry">
            <Array as="points">
              <mxPoint x="480" y="430" />
            </Array>
          </mxGeometry>
        </mxCell>
        <mxCell id="EdzxDMMUwvk8e3eNhYw5-8" style="edgeStyle=orthogonalEdgeStyle;rounded=0;orthogonalLoop=1;jettySize=auto;html=1;entryX=1;entryY=0.5;entryDx=0;entryDy=0;" edge="1" parent="LsBLEycZu8wHF8fiRbAB-2" source="s5VFjWRD4oIK-I60fPWd-23" target="s5VFjWRD4oIK-I60fPWd-32">
          <mxGeometry relative="1" as="geometry" />
        </mxCell>
        <mxCell id="LsBLEycZu8wHF8fiRbAB-3" value="Medico&amp;nbsp;" style="swimlane;html=1;startSize=20;" parent="LsBLEycZu8wHF8fiRbAB-2" vertex="1">
          <mxGeometry y="20" width="360" height="1300" as="geometry" />
        </mxCell>
        <mxCell id="LsBLEycZu8wHF8fiRbAB-5" style="edgeStyle=orthogonalEdgeStyle;rounded=0;orthogonalLoop=1;jettySize=auto;html=1;" parent="LsBLEycZu8wHF8fiRbAB-3" source="LsBLEycZu8wHF8fiRbAB-6" edge="1">
          <mxGeometry relative="1" as="geometry">
            <mxPoint x="100" y="150" as="targetPoint" />
          </mxGeometry>
        </mxCell>
        <mxCell id="LsBLEycZu8wHF8fiRbAB-6" value="&lt;div style=&quot;text-align: start;&quot;&gt;&lt;font face=&quot;Helvetica&quot; style=&quot;font-size: 12px;&quot; color=&quot;#111111&quot;&gt;&lt;span style=&quot;white-space-collapse: preserve; background-color: rgb(247, 247, 247);&quot;&gt;&lt;b style=&quot;&quot;&gt;inicia sesión &lt;/b&gt;&lt;/span&gt;&lt;/font&gt;&lt;/div&gt;" style="rounded=1;whiteSpace=wrap;html=1;shadow=0;comic=0;labelBackgroundColor=none;strokeWidth=1;fontFamily=Verdana;fontSize=12;align=center;arcSize=50;" parent="LsBLEycZu8wHF8fiRbAB-3" vertex="1">
          <mxGeometry x="50" y="90" width="100" height="30" as="geometry" />
        </mxCell>
        <mxCell id="LsBLEycZu8wHF8fiRbAB-8" style="edgeStyle=orthogonalEdgeStyle;rounded=0;orthogonalLoop=1;jettySize=auto;html=1;" parent="LsBLEycZu8wHF8fiRbAB-3" source="LsBLEycZu8wHF8fiRbAB-9" edge="1">
          <mxGeometry relative="1" as="geometry">
            <mxPoint x="102.5" y="260" as="targetPoint" />
          </mxGeometry>
        </mxCell>
        <mxCell id="LsBLEycZu8wHF8fiRbAB-9" value="&lt;b&gt;Selecciona la opción &quot;Gestionar Historia Clínica&lt;/b&gt;" style="rounded=1;whiteSpace=wrap;html=1;" parent="LsBLEycZu8wHF8fiRbAB-3" vertex="1">
          <mxGeometry x="50" y="150" width="105" height="70" as="geometry" />
        </mxCell>
        <mxCell id="LsBLEycZu8wHF8fiRbAB-11" value="&lt;b&gt;&lt;font face=&quot;Helvetica&quot;&gt;Selecciona el registro del paciente&lt;/font&gt;&lt;/b&gt;" style="whiteSpace=wrap;html=1;fontFamily=Verdana;rounded=0;shadow=0;comic=0;labelBackgroundColor=none;strokeWidth=1;arcSize=50;" parent="LsBLEycZu8wHF8fiRbAB-3" vertex="1">
          <mxGeometry x="45" y="260" width="120" height="60" as="geometry" />
        </mxCell>
        <mxCell id="s5VFjWRD4oIK-I60fPWd-0" value="&lt;b&gt;&lt;font face=&quot;Helvetica&quot;&gt;Selecciona la acción (Agregar, Editar, Eliminar)&lt;/font&gt;&lt;/b&gt;" style="whiteSpace=wrap;html=1;fontFamily=Verdana;rounded=0;shadow=0;comic=0;labelBackgroundColor=none;strokeWidth=1;arcSize=50;" parent="LsBLEycZu8wHF8fiRbAB-3" vertex="1">
          <mxGeometry x="45" y="360" width="120" height="60" as="geometry" />
        </mxCell>
        <mxCell id="s5VFjWRD4oIK-I60fPWd-16" value="&lt;b&gt;&lt;font face=&quot;Helvetica&quot;&gt;Muestra mensaje de cancelación de la operación&lt;/font&gt;&lt;/b&gt;" style="html=1;whiteSpace=wrap;" parent="LsBLEycZu8wHF8fiRbAB-3" vertex="1">
          <mxGeometry x="50" y="450" width="115" height="55" as="geometry" />
        </mxCell>
        <mxCell id="EdzxDMMUwvk8e3eNhYw5-13" style="edgeStyle=orthogonalEdgeStyle;rounded=0;orthogonalLoop=1;jettySize=auto;html=1;entryX=0.5;entryY=0;entryDx=0;entryDy=0;" edge="1" parent="LsBLEycZu8wHF8fiRbAB-3" source="s5VFjWRD4oIK-I60fPWd-32" target="EdzxDMMUwvk8e3eNhYw5-9">
          <mxGeometry relative="1" as="geometry" />
        </mxCell>
        <mxCell id="s5VFjWRD4oIK-I60fPWd-32" value="&lt;b&gt;Confirma la eliminación&lt;/b&gt;" style="html=1;whiteSpace=wrap;" parent="LsBLEycZu8wHF8fiRbAB-3" vertex="1">
          <mxGeometry x="127.5" y="560" width="110" height="50" as="geometry" />
        </mxCell>
        <mxCell id="EdzxDMMUwvk8e3eNhYw5-9" value="&lt;b&gt;¿Confirma la operación eliminar?&lt;/b&gt;" style="rhombus;whiteSpace=wrap;html=1;fontColor=#000000;fillColor=#ffffc0;strokeColor=#ff0000;" vertex="1" parent="LsBLEycZu8wHF8fiRbAB-3">
          <mxGeometry x="120" y="670" width="125" height="90" as="geometry" />
        </mxCell>
        <mxCell id="EdzxDMMUwvk8e3eNhYw5-10" value="no" style="edgeStyle=orthogonalEdgeStyle;html=1;align=left;verticalAlign=bottom;endArrow=open;endSize=8;strokeColor=#ff0000;rounded=0;entryX=0.5;entryY=0;entryDx=0;entryDy=0;" edge="1" source="EdzxDMMUwvk8e3eNhYw5-9" parent="LsBLEycZu8wHF8fiRbAB-3" target="EdzxDMMUwvk8e3eNhYw5-19">
          <mxGeometry x="-0.222" relative="1" as="geometry">
            <mxPoint x="100" y="810" as="targetPoint" />
            <mxPoint y="1" as="offset" />
          </mxGeometry>
        </mxCell>
        <mxCell id="EdzxDMMUwvk8e3eNhYw5-19" value="&lt;b&gt;Cancela la operación&amp;nbsp;&lt;/b&gt;" style="html=1;whiteSpace=wrap;" vertex="1" parent="LsBLEycZu8wHF8fiRbAB-3">
          <mxGeometry x="75" y="810" width="80" height="40" as="geometry" />
        </mxCell>
        <mxCell id="7g78MsDj7U5CczHnzLd7-0" value="" style="ellipse;html=1;shape=startState;fillColor=#000000;strokeColor=#ff0000;" vertex="1" parent="LsBLEycZu8wHF8fiRbAB-3">
          <mxGeometry x="85" y="20" width="30" height="30" as="geometry" />
        </mxCell>
        <mxCell id="7g78MsDj7U5CczHnzLd7-1" value="" style="edgeStyle=orthogonalEdgeStyle;html=1;verticalAlign=bottom;endArrow=open;endSize=8;strokeColor=#ff0000;rounded=0;" edge="1" source="7g78MsDj7U5CczHnzLd7-0" parent="LsBLEycZu8wHF8fiRbAB-3">
          <mxGeometry relative="1" as="geometry">
            <mxPoint x="100" y="90" as="targetPoint" />
          </mxGeometry>
        </mxCell>
        <mxCell id="LsBLEycZu8wHF8fiRbAB-14" value="Sistema" style="swimlane;html=1;startSize=20;" parent="LsBLEycZu8wHF8fiRbAB-2" vertex="1">
          <mxGeometry x="360" y="20" width="392.5" height="1300" as="geometry" />
        </mxCell>
        <mxCell id="LsBLEycZu8wHF8fiRbAB-16" value="&lt;b&gt;&lt;font face=&quot;Helvetica&quot;&gt;Presenta las opciones de gestión de los registros&lt;/font&gt;&lt;/b&gt;" style="rounded=0;whiteSpace=wrap;html=1;shadow=0;comic=0;labelBackgroundColor=none;strokeWidth=1;fontFamily=Verdana;fontSize=12;align=center;arcSize=50;" parent="LsBLEycZu8wHF8fiRbAB-14" vertex="1">
          <mxGeometry x="65" y="252.5" width="110" height="75" as="geometry" />
        </mxCell>
        <mxCell id="s5VFjWRD4oIK-I60fPWd-23" value="&lt;b&gt;&lt;font face=&quot;Helvetica&quot;&gt;Verifica si la operación es eliminar&amp;nbsp;&lt;/font&gt;&lt;/b&gt;" style="whiteSpace=wrap;html=1;fontFamily=Verdana;rounded=0;shadow=0;comic=0;labelBackgroundColor=none;strokeWidth=1;arcSize=50;" parent="LsBLEycZu8wHF8fiRbAB-14" vertex="1">
          <mxGeometry x="70" y="540" width="105" height="60" as="geometry" />
        </mxCell>
        <mxCell id="s5VFjWRD4oIK-I60fPWd-39" value="" style="edgeStyle=orthogonalEdgeStyle;rounded=0;orthogonalLoop=1;jettySize=auto;html=1;" parent="LsBLEycZu8wHF8fiRbAB-14" source="s5VFjWRD4oIK-I60fPWd-36" target="s5VFjWRD4oIK-I60fPWd-38" edge="1">
          <mxGeometry relative="1" as="geometry" />
        </mxCell>
        <mxCell id="s5VFjWRD4oIK-I60fPWd-36" value="&lt;b&gt;Elimina el registro&lt;/b&gt;" style="html=1;whiteSpace=wrap;" parent="LsBLEycZu8wHF8fiRbAB-14" vertex="1">
          <mxGeometry x="80" y="700" width="110" height="50" as="geometry" />
        </mxCell>
        <mxCell id="s5VFjWRD4oIK-I60fPWd-42" style="edgeStyle=orthogonalEdgeStyle;rounded=0;orthogonalLoop=1;jettySize=auto;html=1;entryX=0.5;entryY=0;entryDx=0;entryDy=0;" parent="LsBLEycZu8wHF8fiRbAB-14" source="s5VFjWRD4oIK-I60fPWd-38" target="LsBLEycZu8wHF8fiRbAB-21" edge="1">
          <mxGeometry relative="1" as="geometry" />
        </mxCell>
        <mxCell id="s5VFjWRD4oIK-I60fPWd-38" value="&lt;b&gt;Guarda Cambios&lt;/b&gt;" style="whiteSpace=wrap;html=1;" parent="LsBLEycZu8wHF8fiRbAB-14" vertex="1">
          <mxGeometry x="75" y="780" width="120" height="60" as="geometry" />
        </mxCell>
        <mxCell id="LsBLEycZu8wHF8fiRbAB-20" style="edgeStyle=orthogonalEdgeStyle;rounded=0;orthogonalLoop=1;jettySize=auto;html=1;entryX=0.5;entryY=0;entryDx=0;entryDy=0;" parent="LsBLEycZu8wHF8fiRbAB-14" source="LsBLEycZu8wHF8fiRbAB-21" target="LsBLEycZu8wHF8fiRbAB-22" edge="1">
          <mxGeometry relative="1" as="geometry" />
        </mxCell>
        <mxCell id="LsBLEycZu8wHF8fiRbAB-21" value="&lt;b&gt;fin&amp;nbsp;&lt;/b&gt;" style="ellipse;whiteSpace=wrap;html=1;rounded=1;" parent="LsBLEycZu8wHF8fiRbAB-14" vertex="1">
          <mxGeometry x="105" y="890" width="60" height="40" as="geometry" />
        </mxCell>
        <mxCell id="LsBLEycZu8wHF8fiRbAB-22" value="" style="ellipse;html=1;shape=endState;fillColor=#000000;strokeColor=#ff0000;" parent="LsBLEycZu8wHF8fiRbAB-14" vertex="1">
          <mxGeometry x="120" y="960" width="30" height="30" as="geometry" />
        </mxCell>
        <mxCell id="EdzxDMMUwvk8e3eNhYw5-3" value="&lt;b&gt;¿Se realizo la acción?&lt;/b&gt;" style="rhombus;whiteSpace=wrap;html=1;fontColor=#000000;fillColor=#ffffc0;strokeColor=#ff0000;" vertex="1" parent="LsBLEycZu8wHF8fiRbAB-14">
          <mxGeometry x="60" y="420" width="120" height="70" as="geometry" />
        </mxCell>
        <mxCell id="EdzxDMMUwvk8e3eNhYw5-5" value="yes" style="edgeStyle=orthogonalEdgeStyle;html=1;align=left;verticalAlign=top;endArrow=open;endSize=8;strokeColor=#ff0000;rounded=0;entryX=0.476;entryY=0;entryDx=0;entryDy=0;entryPerimeter=0;" edge="1" source="EdzxDMMUwvk8e3eNhYw5-3" parent="LsBLEycZu8wHF8fiRbAB-14" target="s5VFjWRD4oIK-I60fPWd-23">
          <mxGeometry x="-1" relative="1" as="geometry">
            <mxPoint x="125" y="540" as="targetPoint" />
          </mxGeometry>
        </mxCell>
        <mxCell id="EdzxDMMUwvk8e3eNhYw5-11" value="yes" style="edgeStyle=orthogonalEdgeStyle;html=1;align=left;verticalAlign=top;endArrow=open;endSize=8;strokeColor=#ff0000;rounded=0;entryX=0;entryY=0.5;entryDx=0;entryDy=0;" edge="1" source="EdzxDMMUwvk8e3eNhYw5-9" parent="LsBLEycZu8wHF8fiRbAB-2" target="s5VFjWRD4oIK-I60fPWd-36">
          <mxGeometry x="-0.8528" y="25" relative="1" as="geometry">
            <mxPoint x="205" y="790" as="targetPoint" />
            <mxPoint as="offset" />
          </mxGeometry>
        </mxCell>
        <mxCell id="EdzxDMMUwvk8e3eNhYw5-20" style="edgeStyle=orthogonalEdgeStyle;rounded=0;orthogonalLoop=1;jettySize=auto;html=1;entryX=0;entryY=0.5;entryDx=0;entryDy=0;" edge="1" parent="LsBLEycZu8wHF8fiRbAB-2" source="EdzxDMMUwvk8e3eNhYw5-19" target="LsBLEycZu8wHF8fiRbAB-22">
          <mxGeometry relative="1" as="geometry">
            <Array as="points">
              <mxPoint x="120" y="995" />
            </Array>
          </mxGeometry>
        </mxCell>
      </root>
    </mxGraphModel>
  </diagram>
  <diagram name="ReqFun6" id="sNbEs61ZoDbjQAu7hsPe">
    <mxGraphModel dx="613" dy="671" grid="1" gridSize="10" guides="1" tooltips="1" connect="1" arrows="1" fold="1" page="1" pageScale="1" pageWidth="850" pageHeight="1100" background="none" math="0" shadow="0">
      <root>
        <mxCell id="H--uQdwtmrMRxxv45_nn-0" />
        <mxCell id="H--uQdwtmrMRxxv45_nn-1" parent="H--uQdwtmrMRxxv45_nn-0" />
        <mxCell id="H--uQdwtmrMRxxv45_nn-2" value="Registro del tratamiento del paciente" style="swimlane;html=1;childLayout=stackLayout;startSize=20;rounded=0;shadow=0;comic=0;labelBackgroundColor=none;strokeWidth=1;fontFamily=Verdana;fontSize=12;align=center;" parent="H--uQdwtmrMRxxv45_nn-1" vertex="1">
          <mxGeometry x="120" y="50" width="762.5" height="990" as="geometry" />
        </mxCell>
        <mxCell id="euGcifxokYZkXpAtM7BH-1" style="edgeStyle=orthogonalEdgeStyle;rounded=0;orthogonalLoop=1;jettySize=auto;html=1;" parent="H--uQdwtmrMRxxv45_nn-2" source="H--uQdwtmrMRxxv45_nn-11" target="H--uQdwtmrMRxxv45_nn-21" edge="1">
          <mxGeometry relative="1" as="geometry" />
        </mxCell>
        <mxCell id="euGcifxokYZkXpAtM7BH-2" style="edgeStyle=orthogonalEdgeStyle;rounded=0;orthogonalLoop=1;jettySize=auto;html=1;entryX=1;entryY=0.5;entryDx=0;entryDy=0;" parent="H--uQdwtmrMRxxv45_nn-2" source="H--uQdwtmrMRxxv45_nn-21" target="H--uQdwtmrMRxxv45_nn-12" edge="1">
          <mxGeometry relative="1" as="geometry">
            <Array as="points">
              <mxPoint x="480" y="280" />
            </Array>
          </mxGeometry>
        </mxCell>
        <mxCell id="PSr17dvCXPnZ3eCO4Tq6-1" style="edgeStyle=orthogonalEdgeStyle;rounded=0;orthogonalLoop=1;jettySize=auto;html=1;" parent="H--uQdwtmrMRxxv45_nn-2" source="H--uQdwtmrMRxxv45_nn-14" target="H--uQdwtmrMRxxv45_nn-28" edge="1">
          <mxGeometry relative="1" as="geometry" />
        </mxCell>
        <mxCell id="o5XhE214u13PNeGl7ErP-6" value="no" style="edgeStyle=orthogonalEdgeStyle;html=1;align=left;verticalAlign=bottom;endArrow=open;endSize=8;strokeColor=#ff0000;rounded=0;entryX=1;entryY=0.5;entryDx=0;entryDy=0;" edge="1" source="o5XhE214u13PNeGl7ErP-5" parent="H--uQdwtmrMRxxv45_nn-2" target="H--uQdwtmrMRxxv45_nn-15">
          <mxGeometry x="-0.6471" relative="1" as="geometry">
            <mxPoint x="630" y="600" as="targetPoint" />
            <mxPoint as="offset" />
          </mxGeometry>
        </mxCell>
        <mxCell id="H--uQdwtmrMRxxv45_nn-5" value="Medico&amp;nbsp;" style="swimlane;html=1;startSize=20;" parent="H--uQdwtmrMRxxv45_nn-2" vertex="1">
          <mxGeometry y="20" width="360" height="970" as="geometry" />
        </mxCell>
        <mxCell id="H--uQdwtmrMRxxv45_nn-7" style="edgeStyle=orthogonalEdgeStyle;rounded=0;orthogonalLoop=1;jettySize=auto;html=1;" parent="H--uQdwtmrMRxxv45_nn-5" source="H--uQdwtmrMRxxv45_nn-8" edge="1">
          <mxGeometry relative="1" as="geometry">
            <mxPoint x="100" y="150" as="targetPoint" />
          </mxGeometry>
        </mxCell>
        <mxCell id="H--uQdwtmrMRxxv45_nn-8" value="&lt;div style=&quot;text-align: start;&quot;&gt;&lt;font face=&quot;Helvetica&quot; style=&quot;font-size: 12px;&quot; color=&quot;#111111&quot;&gt;&lt;span style=&quot;white-space-collapse: preserve; background-color: rgb(247, 247, 247);&quot;&gt;&lt;b style=&quot;&quot;&gt;inicia sesión &lt;/b&gt;&lt;/span&gt;&lt;/font&gt;&lt;/div&gt;" style="rounded=1;whiteSpace=wrap;html=1;shadow=0;comic=0;labelBackgroundColor=none;strokeWidth=1;fontFamily=Verdana;fontSize=12;align=center;arcSize=50;" parent="H--uQdwtmrMRxxv45_nn-5" vertex="1">
          <mxGeometry x="50" y="90" width="100" height="30" as="geometry" />
        </mxCell>
        <mxCell id="H--uQdwtmrMRxxv45_nn-11" value="&lt;b&gt;Registrar Tratamiento&lt;/b&gt;" style="rounded=1;whiteSpace=wrap;html=1;" parent="H--uQdwtmrMRxxv45_nn-5" vertex="1">
          <mxGeometry x="50" y="150" width="90" height="40" as="geometry" />
        </mxCell>
        <mxCell id="PSr17dvCXPnZ3eCO4Tq6-0" style="edgeStyle=orthogonalEdgeStyle;rounded=0;orthogonalLoop=1;jettySize=auto;html=1;entryX=0.5;entryY=0;entryDx=0;entryDy=0;" parent="H--uQdwtmrMRxxv45_nn-5" source="H--uQdwtmrMRxxv45_nn-13" target="H--uQdwtmrMRxxv45_nn-14" edge="1">
          <mxGeometry relative="1" as="geometry" />
        </mxCell>
        <mxCell id="H--uQdwtmrMRxxv45_nn-13" value="&lt;b&gt;&lt;font face=&quot;Helvetica&quot;&gt;&amp;nbsp;Ingresa los detalles del tratamiento (dosis, frecuencia, resultados observados)&lt;/font&gt;&lt;/b&gt;" style="whiteSpace=wrap;html=1;fontFamily=Verdana;rounded=0;shadow=0;comic=0;labelBackgroundColor=none;strokeWidth=1;arcSize=50;" parent="H--uQdwtmrMRxxv45_nn-5" vertex="1">
          <mxGeometry x="30" y="330" width="145" height="80" as="geometry" />
        </mxCell>
        <mxCell id="H--uQdwtmrMRxxv45_nn-14" value="&lt;b&gt;&lt;font face=&quot;Helvetica&quot;&gt;Envia Formulario&lt;/font&gt;&lt;/b&gt;" style="html=1;whiteSpace=wrap;" parent="H--uQdwtmrMRxxv45_nn-5" vertex="1">
          <mxGeometry x="57.5" y="450" width="90" height="50" as="geometry" />
        </mxCell>
        <mxCell id="o5XhE214u13PNeGl7ErP-8" style="edgeStyle=orthogonalEdgeStyle;rounded=0;orthogonalLoop=1;jettySize=auto;html=1;entryX=0;entryY=0.5;entryDx=0;entryDy=0;" edge="1" parent="H--uQdwtmrMRxxv45_nn-5" source="H--uQdwtmrMRxxv45_nn-15" target="H--uQdwtmrMRxxv45_nn-14">
          <mxGeometry relative="1" as="geometry">
            <Array as="points">
              <mxPoint x="37" y="580" />
              <mxPoint x="37" y="475" />
            </Array>
          </mxGeometry>
        </mxCell>
        <mxCell id="H--uQdwtmrMRxxv45_nn-15" value="&lt;b&gt;Muestra mensaje de error y solicita ingresar el Tratamiento nuevamente&lt;/b&gt;" style="html=1;whiteSpace=wrap;" parent="H--uQdwtmrMRxxv45_nn-5" vertex="1">
          <mxGeometry x="140" y="546.25" width="130" height="67.5" as="geometry" />
        </mxCell>
        <mxCell id="euGcifxokYZkXpAtM7BH-3" style="edgeStyle=orthogonalEdgeStyle;rounded=0;orthogonalLoop=1;jettySize=auto;html=1;entryX=0.5;entryY=0;entryDx=0;entryDy=0;" parent="H--uQdwtmrMRxxv45_nn-5" source="H--uQdwtmrMRxxv45_nn-12" target="H--uQdwtmrMRxxv45_nn-13" edge="1">
          <mxGeometry relative="1" as="geometry" />
        </mxCell>
        <mxCell id="H--uQdwtmrMRxxv45_nn-12" value="&lt;b&gt;&lt;font face=&quot;Helvetica&quot;&gt;Selecciona el paciente&lt;/font&gt;&lt;/b&gt;" style="whiteSpace=wrap;html=1;fontFamily=Verdana;rounded=0;shadow=0;comic=0;labelBackgroundColor=none;strokeWidth=1;arcSize=50;" parent="H--uQdwtmrMRxxv45_nn-5" vertex="1">
          <mxGeometry x="55" y="240" width="95" height="40" as="geometry" />
        </mxCell>
        <mxCell id="o5XhE214u13PNeGl7ErP-0" value="" style="ellipse;html=1;shape=startState;fillColor=#000000;strokeColor=#ff0000;" vertex="1" parent="H--uQdwtmrMRxxv45_nn-5">
          <mxGeometry x="85" y="30" width="30" height="30" as="geometry" />
        </mxCell>
        <mxCell id="o5XhE214u13PNeGl7ErP-1" value="" style="edgeStyle=orthogonalEdgeStyle;html=1;verticalAlign=bottom;endArrow=open;endSize=8;strokeColor=#ff0000;rounded=0;" edge="1" source="o5XhE214u13PNeGl7ErP-0" parent="H--uQdwtmrMRxxv45_nn-5">
          <mxGeometry relative="1" as="geometry">
            <mxPoint x="100" y="90" as="targetPoint" />
          </mxGeometry>
        </mxCell>
        <mxCell id="H--uQdwtmrMRxxv45_nn-20" value="Sistema" style="swimlane;html=1;startSize=20;" parent="H--uQdwtmrMRxxv45_nn-2" vertex="1">
          <mxGeometry x="360" y="20" width="402.5" height="970" as="geometry" />
        </mxCell>
        <mxCell id="H--uQdwtmrMRxxv45_nn-21" value="&lt;b&gt;&lt;font face=&quot;Helvetica&quot;&gt;Presenta el formulario de tratamiento&lt;/font&gt;&lt;/b&gt;" style="rounded=0;whiteSpace=wrap;html=1;shadow=0;comic=0;labelBackgroundColor=none;strokeWidth=1;fontFamily=Verdana;fontSize=12;align=center;arcSize=50;" parent="H--uQdwtmrMRxxv45_nn-20" vertex="1">
          <mxGeometry x="65" y="145" width="110" height="50" as="geometry" />
        </mxCell>
        <mxCell id="H--uQdwtmrMRxxv45_nn-27" value="" style="edgeStyle=orthogonalEdgeStyle;rounded=0;orthogonalLoop=1;jettySize=auto;html=1;" parent="H--uQdwtmrMRxxv45_nn-20" source="H--uQdwtmrMRxxv45_nn-28" edge="1">
          <mxGeometry relative="1" as="geometry">
            <mxPoint x="172.5" y="550" as="targetPoint" />
          </mxGeometry>
        </mxCell>
        <mxCell id="H--uQdwtmrMRxxv45_nn-28" value="&lt;b&gt;&lt;font face=&quot;Helvetica&quot;&gt;Valida los datos ingresados&lt;/font&gt;&lt;/b&gt;" style="whiteSpace=wrap;html=1;fontFamily=Verdana;rounded=0;shadow=0;comic=0;labelBackgroundColor=none;strokeWidth=1;arcSize=50;" parent="H--uQdwtmrMRxxv45_nn-20" vertex="1">
          <mxGeometry x="112.5" y="445" width="120" height="60" as="geometry" />
        </mxCell>
        <mxCell id="H--uQdwtmrMRxxv45_nn-33" value="&lt;b&gt;&lt;font face=&quot;Helvetica&quot;&gt;Guarda los detalles del tratamiento&lt;/font&gt;&lt;/b&gt;" style="whiteSpace=wrap;html=1;fontFamily=Verdana;rounded=0;shadow=0;comic=0;labelBackgroundColor=none;strokeWidth=1;arcSize=50;" parent="H--uQdwtmrMRxxv45_nn-20" vertex="1">
          <mxGeometry x="120" y="660" width="105" height="60" as="geometry" />
        </mxCell>
        <mxCell id="H--uQdwtmrMRxxv45_nn-36" value="" style="edgeStyle=orthogonalEdgeStyle;rounded=0;orthogonalLoop=1;jettySize=auto;html=1;" parent="H--uQdwtmrMRxxv45_nn-20" target="H--uQdwtmrMRxxv45_nn-39" edge="1">
          <mxGeometry relative="1" as="geometry">
            <mxPoint x="172.5" y="720" as="sourcePoint" />
          </mxGeometry>
        </mxCell>
        <mxCell id="H--uQdwtmrMRxxv45_nn-38" style="edgeStyle=orthogonalEdgeStyle;rounded=0;orthogonalLoop=1;jettySize=auto;html=1;entryX=0.5;entryY=0;entryDx=0;entryDy=0;" parent="H--uQdwtmrMRxxv45_nn-20" source="H--uQdwtmrMRxxv45_nn-39" target="H--uQdwtmrMRxxv45_nn-41" edge="1">
          <mxGeometry relative="1" as="geometry" />
        </mxCell>
        <mxCell id="H--uQdwtmrMRxxv45_nn-39" value="&lt;b&gt;&lt;font face=&quot;Helvetica&quot;&gt;Guarda Cambios&lt;/font&gt;&lt;/b&gt;" style="whiteSpace=wrap;html=1;" parent="H--uQdwtmrMRxxv45_nn-20" vertex="1">
          <mxGeometry x="112.5" y="750" width="120" height="60" as="geometry" />
        </mxCell>
        <mxCell id="H--uQdwtmrMRxxv45_nn-40" style="edgeStyle=orthogonalEdgeStyle;rounded=0;orthogonalLoop=1;jettySize=auto;html=1;entryX=0.5;entryY=0;entryDx=0;entryDy=0;" parent="H--uQdwtmrMRxxv45_nn-20" source="H--uQdwtmrMRxxv45_nn-41" edge="1">
          <mxGeometry relative="1" as="geometry">
            <mxPoint x="172.5" y="930" as="targetPoint" />
          </mxGeometry>
        </mxCell>
        <mxCell id="H--uQdwtmrMRxxv45_nn-41" value="&lt;b&gt;fin&amp;nbsp;&lt;/b&gt;" style="ellipse;whiteSpace=wrap;html=1;rounded=1;" parent="H--uQdwtmrMRxxv45_nn-20" vertex="1">
          <mxGeometry x="142.5" y="860" width="60" height="40" as="geometry" />
        </mxCell>
        <mxCell id="H--uQdwtmrMRxxv45_nn-42" value="" style="ellipse;html=1;shape=endState;fillColor=#000000;strokeColor=#ff0000;" parent="H--uQdwtmrMRxxv45_nn-20" vertex="1">
          <mxGeometry x="157.5" y="930" width="30" height="30" as="geometry" />
        </mxCell>
        <mxCell id="o5XhE214u13PNeGl7ErP-5" value="&lt;b&gt;¿Datos completos?&lt;/b&gt;" style="rhombus;whiteSpace=wrap;html=1;fontColor=#000000;fillColor=#ffffc0;strokeColor=#ff0000;" vertex="1" parent="H--uQdwtmrMRxxv45_nn-20">
          <mxGeometry x="122.5" y="550" width="100" height="60" as="geometry" />
        </mxCell>
        <mxCell id="o5XhE214u13PNeGl7ErP-7" value="yes" style="edgeStyle=orthogonalEdgeStyle;html=1;align=left;verticalAlign=top;endArrow=open;endSize=8;strokeColor=#ff0000;rounded=0;" edge="1" source="o5XhE214u13PNeGl7ErP-5" parent="H--uQdwtmrMRxxv45_nn-20" target="H--uQdwtmrMRxxv45_nn-33">
          <mxGeometry x="-1" relative="1" as="geometry">
            <mxPoint x="130" y="660" as="targetPoint" />
          </mxGeometry>
        </mxCell>
      </root>
    </mxGraphModel>
  </diagram>
  <diagram name="ReqFun7" id="QWCDggQ0yBiAnTr-uFh5">
    <mxGraphModel dx="613" dy="671" grid="1" gridSize="10" guides="1" tooltips="1" connect="1" arrows="1" fold="1" page="1" pageScale="1" pageWidth="850" pageHeight="1100" background="none" math="0" shadow="0">
      <root>
        <mxCell id="8k4QjiAohgPjP4lrpjnH-0" />
        <mxCell id="8k4QjiAohgPjP4lrpjnH-1" parent="8k4QjiAohgPjP4lrpjnH-0" />
        <mxCell id="8k4QjiAohgPjP4lrpjnH-2" value="Mostrar calendario con disponibilidad de horarios." style="swimlane;html=1;childLayout=stackLayout;startSize=20;rounded=0;shadow=0;comic=0;labelBackgroundColor=none;strokeWidth=1;fontFamily=Verdana;fontSize=12;align=center;" parent="8k4QjiAohgPjP4lrpjnH-1" vertex="1">
          <mxGeometry x="120" y="50" width="772.5" height="840" as="geometry" />
        </mxCell>
        <mxCell id="8k4QjiAohgPjP4lrpjnH-15" style="edgeStyle=orthogonalEdgeStyle;rounded=0;orthogonalLoop=1;jettySize=auto;html=1;" parent="8k4QjiAohgPjP4lrpjnH-2" source="8k4QjiAohgPjP4lrpjnH-8" target="8k4QjiAohgPjP4lrpjnH-19" edge="1">
          <mxGeometry relative="1" as="geometry" />
        </mxCell>
        <mxCell id="Ijf4kY-Sd_MDi-tenJ1V-0" style="edgeStyle=orthogonalEdgeStyle;rounded=0;orthogonalLoop=1;jettySize=auto;html=1;entryX=1;entryY=0.5;entryDx=0;entryDy=0;" parent="8k4QjiAohgPjP4lrpjnH-2" source="8k4QjiAohgPjP4lrpjnH-19" target="8k4QjiAohgPjP4lrpjnH-14" edge="1">
          <mxGeometry relative="1" as="geometry">
            <Array as="points">
              <mxPoint x="480" y="290" />
            </Array>
          </mxGeometry>
        </mxCell>
        <mxCell id="8k4QjiAohgPjP4lrpjnH-3" value="Medico&amp;nbsp;" style="swimlane;html=1;startSize=20;" parent="8k4QjiAohgPjP4lrpjnH-2" vertex="1">
          <mxGeometry y="20" width="360" height="820" as="geometry" />
        </mxCell>
        <mxCell id="8k4QjiAohgPjP4lrpjnH-5" style="edgeStyle=orthogonalEdgeStyle;rounded=0;orthogonalLoop=1;jettySize=auto;html=1;" parent="8k4QjiAohgPjP4lrpjnH-3" source="8k4QjiAohgPjP4lrpjnH-6" edge="1">
          <mxGeometry relative="1" as="geometry">
            <mxPoint x="100" y="150" as="targetPoint" />
          </mxGeometry>
        </mxCell>
        <mxCell id="8k4QjiAohgPjP4lrpjnH-6" value="&lt;div style=&quot;text-align: start;&quot;&gt;&lt;font face=&quot;Helvetica&quot; style=&quot;font-size: 12px;&quot; color=&quot;#111111&quot;&gt;&lt;span style=&quot;white-space-collapse: preserve; background-color: rgb(247, 247, 247);&quot;&gt;&lt;b&gt;inicia sesión &lt;/b&gt;&lt;/span&gt;&lt;/font&gt;&lt;/div&gt;" style="rounded=1;whiteSpace=wrap;html=1;shadow=0;comic=0;labelBackgroundColor=none;strokeWidth=1;fontFamily=Verdana;fontSize=12;align=center;arcSize=50;" parent="8k4QjiAohgPjP4lrpjnH-3" vertex="1">
          <mxGeometry x="50" y="90" width="100" height="30" as="geometry" />
        </mxCell>
        <mxCell id="8k4QjiAohgPjP4lrpjnH-8" value="&lt;b&gt;Selecciona la opción &quot;Ver Calendario&quot;.&lt;/b&gt;" style="rounded=1;whiteSpace=wrap;html=1;" parent="8k4QjiAohgPjP4lrpjnH-3" vertex="1">
          <mxGeometry x="50" y="150" width="90" height="40" as="geometry" />
        </mxCell>
        <mxCell id="8k4QjiAohgPjP4lrpjnH-10" value="&lt;b&gt;&lt;font face=&quot;Helvetica&quot;&gt;Navega por las fechas y horarios y realiza una acción&amp;nbsp;&lt;/font&gt;&lt;/b&gt;" style="whiteSpace=wrap;html=1;fontFamily=Verdana;rounded=0;shadow=0;comic=0;labelBackgroundColor=none;strokeWidth=1;arcSize=50;" parent="8k4QjiAohgPjP4lrpjnH-3" vertex="1">
          <mxGeometry x="46.25" y="340" width="107.5" height="80" as="geometry" />
        </mxCell>
        <mxCell id="YoZmoo28CnRp73RJvyHO-8" style="edgeStyle=orthogonalEdgeStyle;rounded=0;orthogonalLoop=1;jettySize=auto;html=1;entryX=0.5;entryY=0;entryDx=0;entryDy=0;" edge="1" parent="8k4QjiAohgPjP4lrpjnH-3" source="8k4QjiAohgPjP4lrpjnH-14" target="8k4QjiAohgPjP4lrpjnH-10">
          <mxGeometry relative="1" as="geometry" />
        </mxCell>
        <mxCell id="8k4QjiAohgPjP4lrpjnH-14" value="&lt;b&gt;&lt;font face=&quot;Helvetica&quot;&gt;Visualiza el calendario con los horarios disponibles&lt;/font&gt;&lt;/b&gt;" style="whiteSpace=wrap;html=1;fontFamily=Verdana;rounded=0;shadow=0;comic=0;labelBackgroundColor=none;strokeWidth=1;arcSize=50;" parent="8k4QjiAohgPjP4lrpjnH-3" vertex="1">
          <mxGeometry x="55" y="240" width="105" height="60" as="geometry" />
        </mxCell>
        <mxCell id="YoZmoo28CnRp73RJvyHO-0" value="" style="ellipse;html=1;shape=startState;fillColor=#000000;strokeColor=#ff0000;" vertex="1" parent="8k4QjiAohgPjP4lrpjnH-3">
          <mxGeometry x="85" y="20" width="30" height="30" as="geometry" />
        </mxCell>
        <mxCell id="YoZmoo28CnRp73RJvyHO-1" value="" style="edgeStyle=orthogonalEdgeStyle;html=1;verticalAlign=bottom;endArrow=open;endSize=8;strokeColor=#ff0000;rounded=0;" edge="1" source="YoZmoo28CnRp73RJvyHO-0" parent="8k4QjiAohgPjP4lrpjnH-3">
          <mxGeometry relative="1" as="geometry">
            <mxPoint x="100" y="90" as="targetPoint" />
          </mxGeometry>
        </mxCell>
        <mxCell id="YoZmoo28CnRp73RJvyHO-9" style="edgeStyle=orthogonalEdgeStyle;rounded=0;orthogonalLoop=1;jettySize=auto;html=1;entryX=0;entryY=0.5;entryDx=0;entryDy=0;" edge="1" parent="8k4QjiAohgPjP4lrpjnH-3" source="YoZmoo28CnRp73RJvyHO-5" target="8k4QjiAohgPjP4lrpjnH-10">
          <mxGeometry relative="1" as="geometry">
            <Array as="points">
              <mxPoint x="26" y="500" />
              <mxPoint x="26" y="380" />
            </Array>
          </mxGeometry>
        </mxCell>
        <mxCell id="YoZmoo28CnRp73RJvyHO-5" value="&lt;b&gt;Muestra mensaje de fecha no disponible, y solicita nueva fecha&lt;/b&gt;" style="html=1;whiteSpace=wrap;" vertex="1" parent="8k4QjiAohgPjP4lrpjnH-3">
          <mxGeometry x="100" y="470" width="120" height="60" as="geometry" />
        </mxCell>
        <mxCell id="8k4QjiAohgPjP4lrpjnH-18" value="Sistema" style="swimlane;html=1;startSize=20;" parent="8k4QjiAohgPjP4lrpjnH-2" vertex="1">
          <mxGeometry x="360" y="20" width="412.5" height="820" as="geometry" />
        </mxCell>
        <mxCell id="8k4QjiAohgPjP4lrpjnH-19" value="&lt;b&gt;&lt;font face=&quot;Helvetica&quot;&gt;Muestra horarios con la disponibilidad&amp;nbsp;&lt;/font&gt;&lt;/b&gt;" style="rounded=0;whiteSpace=wrap;html=1;shadow=0;comic=0;labelBackgroundColor=none;strokeWidth=1;fontFamily=Verdana;fontSize=12;align=center;arcSize=50;" parent="8k4QjiAohgPjP4lrpjnH-18" vertex="1">
          <mxGeometry x="65" y="145" width="115" height="50" as="geometry" />
        </mxCell>
        <mxCell id="8k4QjiAohgPjP4lrpjnH-21" value="&lt;b&gt;&lt;font face=&quot;Helvetica&quot;&gt;&amp;nbsp;Actualiza la disponibilidad de los horarios&lt;/font&gt;&lt;/b&gt;" style="whiteSpace=wrap;html=1;fontFamily=Verdana;rounded=0;shadow=0;comic=0;labelBackgroundColor=none;strokeWidth=1;arcSize=50;" parent="8k4QjiAohgPjP4lrpjnH-18" vertex="1">
          <mxGeometry x="90" y="590" width="120" height="60" as="geometry" />
        </mxCell>
        <mxCell id="8k4QjiAohgPjP4lrpjnH-26" style="edgeStyle=orthogonalEdgeStyle;rounded=0;orthogonalLoop=1;jettySize=auto;html=1;entryX=0.5;entryY=0;entryDx=0;entryDy=0;" parent="8k4QjiAohgPjP4lrpjnH-18" target="8k4QjiAohgPjP4lrpjnH-29" edge="1">
          <mxGeometry relative="1" as="geometry">
            <mxPoint x="150" y="655" as="sourcePoint" />
          </mxGeometry>
        </mxCell>
        <mxCell id="8k4QjiAohgPjP4lrpjnH-28" style="edgeStyle=orthogonalEdgeStyle;rounded=0;orthogonalLoop=1;jettySize=auto;html=1;entryX=0.5;entryY=0;entryDx=0;entryDy=0;" parent="8k4QjiAohgPjP4lrpjnH-18" source="8k4QjiAohgPjP4lrpjnH-29" target="8k4QjiAohgPjP4lrpjnH-30" edge="1">
          <mxGeometry relative="1" as="geometry" />
        </mxCell>
        <mxCell id="8k4QjiAohgPjP4lrpjnH-29" value="&lt;b&gt;fin&amp;nbsp;&lt;/b&gt;" style="ellipse;whiteSpace=wrap;html=1;rounded=1;" parent="8k4QjiAohgPjP4lrpjnH-18" vertex="1">
          <mxGeometry x="120" y="705" width="60" height="40" as="geometry" />
        </mxCell>
        <mxCell id="8k4QjiAohgPjP4lrpjnH-30" value="" style="ellipse;html=1;shape=endState;fillColor=#000000;strokeColor=#ff0000;" parent="8k4QjiAohgPjP4lrpjnH-18" vertex="1">
          <mxGeometry x="135" y="775" width="30" height="30" as="geometry" />
        </mxCell>
        <mxCell id="YoZmoo28CnRp73RJvyHO-2" value="&lt;b&gt;Comprueba Disponobilidad&lt;/b&gt;" style="rhombus;whiteSpace=wrap;html=1;fontColor=#000000;fillColor=#ffffc0;strokeColor=#ff0000;" vertex="1" parent="8k4QjiAohgPjP4lrpjnH-18">
          <mxGeometry x="100" y="460" width="110" height="70" as="geometry" />
        </mxCell>
        <mxCell id="YoZmoo28CnRp73RJvyHO-3" value="no" style="edgeStyle=orthogonalEdgeStyle;html=1;align=left;verticalAlign=bottom;endArrow=open;endSize=8;strokeColor=#ff0000;rounded=0;" edge="1" source="YoZmoo28CnRp73RJvyHO-2" parent="8k4QjiAohgPjP4lrpjnH-18">
          <mxGeometry x="-0.7505" y="-5" relative="1" as="geometry">
            <mxPoint x="-140" y="495" as="targetPoint" />
            <mxPoint as="offset" />
          </mxGeometry>
        </mxCell>
        <mxCell id="YoZmoo28CnRp73RJvyHO-4" value="yes" style="edgeStyle=orthogonalEdgeStyle;html=1;align=left;verticalAlign=top;endArrow=open;endSize=8;strokeColor=#ff0000;rounded=0;" edge="1" source="YoZmoo28CnRp73RJvyHO-2" parent="8k4QjiAohgPjP4lrpjnH-18">
          <mxGeometry x="-1" relative="1" as="geometry">
            <mxPoint x="155" y="590" as="targetPoint" />
          </mxGeometry>
        </mxCell>
        <mxCell id="YoZmoo28CnRp73RJvyHO-7" style="edgeStyle=orthogonalEdgeStyle;rounded=0;orthogonalLoop=1;jettySize=auto;html=1;entryX=0.5;entryY=0;entryDx=0;entryDy=0;" edge="1" parent="8k4QjiAohgPjP4lrpjnH-2" source="8k4QjiAohgPjP4lrpjnH-10" target="YoZmoo28CnRp73RJvyHO-2">
          <mxGeometry relative="1" as="geometry" />
        </mxCell>
      </root>
    </mxGraphModel>
  </diagram>
  <diagram name="ReqFun8" id="OH6zaYjbQm1cIQ9-X6E-">
    <mxGraphModel dx="744" dy="814" grid="1" gridSize="10" guides="1" tooltips="1" connect="1" arrows="1" fold="1" page="1" pageScale="1" pageWidth="850" pageHeight="1100" background="none" math="0" shadow="0">
      <root>
        <mxCell id="_nFTlH3o4lZq-jBkTrwl-0" />
        <mxCell id="_nFTlH3o4lZq-jBkTrwl-1" parent="_nFTlH3o4lZq-jBkTrwl-0" />
        <mxCell id="_nFTlH3o4lZq-jBkTrwl-2" value="Enviar Notificación al Cliente con Detalles de la Cita." style="swimlane;html=1;childLayout=stackLayout;startSize=20;rounded=0;shadow=0;comic=0;labelBackgroundColor=none;strokeWidth=1;fontFamily=Verdana;fontSize=12;align=center;" parent="_nFTlH3o4lZq-jBkTrwl-1" vertex="1">
          <mxGeometry x="120" y="50" width="762.5" height="780" as="geometry" />
        </mxCell>
        <mxCell id="_nFTlH3o4lZq-jBkTrwl-3" style="edgeStyle=orthogonalEdgeStyle;rounded=0;orthogonalLoop=1;jettySize=auto;html=1;" parent="_nFTlH3o4lZq-jBkTrwl-2" source="_nFTlH3o4lZq-jBkTrwl-9" target="_nFTlH3o4lZq-jBkTrwl-16" edge="1">
          <mxGeometry relative="1" as="geometry" />
        </mxCell>
        <mxCell id="_nFTlH3o4lZq-jBkTrwl-13" style="edgeStyle=orthogonalEdgeStyle;rounded=0;orthogonalLoop=1;jettySize=auto;html=1;entryX=1;entryY=0.5;entryDx=0;entryDy=0;" parent="_nFTlH3o4lZq-jBkTrwl-2" source="_nFTlH3o4lZq-jBkTrwl-16" target="_nFTlH3o4lZq-jBkTrwl-11" edge="1">
          <mxGeometry relative="1" as="geometry">
            <Array as="points">
              <mxPoint x="480" y="290" />
            </Array>
          </mxGeometry>
        </mxCell>
        <mxCell id="_nFTlH3o4lZq-jBkTrwl-4" value="Medico&amp;nbsp;" style="swimlane;html=1;startSize=20;" parent="_nFTlH3o4lZq-jBkTrwl-2" vertex="1">
          <mxGeometry y="20" width="360" height="760" as="geometry" />
        </mxCell>
        <mxCell id="_nFTlH3o4lZq-jBkTrwl-6" style="edgeStyle=orthogonalEdgeStyle;rounded=0;orthogonalLoop=1;jettySize=auto;html=1;" parent="_nFTlH3o4lZq-jBkTrwl-4" source="_nFTlH3o4lZq-jBkTrwl-7" edge="1">
          <mxGeometry relative="1" as="geometry">
            <mxPoint x="100" y="150" as="targetPoint" />
          </mxGeometry>
        </mxCell>
        <mxCell id="_nFTlH3o4lZq-jBkTrwl-7" value="&lt;div style=&quot;text-align: start;&quot;&gt;&lt;font face=&quot;Helvetica&quot; style=&quot;font-size: 12px;&quot; color=&quot;#111111&quot;&gt;&lt;span style=&quot;white-space-collapse: preserve; background-color: rgb(247, 247, 247);&quot;&gt;&lt;b style=&quot;&quot;&gt;inicia sesión &lt;/b&gt;&lt;/span&gt;&lt;/font&gt;&lt;/div&gt;" style="rounded=1;whiteSpace=wrap;html=1;shadow=0;comic=0;labelBackgroundColor=none;strokeWidth=1;fontFamily=Verdana;fontSize=12;align=center;arcSize=50;" parent="_nFTlH3o4lZq-jBkTrwl-4" vertex="1">
          <mxGeometry x="50" y="90" width="100" height="30" as="geometry" />
        </mxCell>
        <mxCell id="_nFTlH3o4lZq-jBkTrwl-9" value="&lt;b&gt;&lt;font face=&quot;Helvetica&quot;&gt;Selecciona la opción Programar Cita&lt;/font&gt;&lt;/b&gt;" style="rounded=1;whiteSpace=wrap;html=1;" parent="_nFTlH3o4lZq-jBkTrwl-4" vertex="1">
          <mxGeometry x="50" y="150" width="90" height="40" as="geometry" />
        </mxCell>
        <mxCell id="Qh-RdTgBjZzOtJ_ydjXR-5" style="edgeStyle=orthogonalEdgeStyle;rounded=0;orthogonalLoop=1;jettySize=auto;html=1;entryX=0.5;entryY=0;entryDx=0;entryDy=0;" edge="1" parent="_nFTlH3o4lZq-jBkTrwl-4" source="_nFTlH3o4lZq-jBkTrwl-11" target="Qh-RdTgBjZzOtJ_ydjXR-0">
          <mxGeometry relative="1" as="geometry" />
        </mxCell>
        <mxCell id="_nFTlH3o4lZq-jBkTrwl-11" value="&lt;b&gt;&lt;font face=&quot;Helvetica&quot;&gt;Selecciona la fecha y hora disponibles&lt;/font&gt;&lt;/b&gt;" style="whiteSpace=wrap;html=1;fontFamily=Verdana;rounded=0;shadow=0;comic=0;labelBackgroundColor=none;strokeWidth=1;arcSize=50;" parent="_nFTlH3o4lZq-jBkTrwl-4" vertex="1">
          <mxGeometry x="55" y="240" width="105" height="60" as="geometry" />
        </mxCell>
        <mxCell id="v_WLHybKsoKR6M-7ojwp-0" value="" style="ellipse;html=1;shape=startState;fillColor=#000000;strokeColor=#ff0000;" vertex="1" parent="_nFTlH3o4lZq-jBkTrwl-4">
          <mxGeometry x="85" y="30" width="30" height="30" as="geometry" />
        </mxCell>
        <mxCell id="v_WLHybKsoKR6M-7ojwp-1" value="" style="edgeStyle=orthogonalEdgeStyle;html=1;verticalAlign=bottom;endArrow=open;endSize=8;strokeColor=#ff0000;rounded=0;" edge="1" source="v_WLHybKsoKR6M-7ojwp-0" parent="_nFTlH3o4lZq-jBkTrwl-4">
          <mxGeometry relative="1" as="geometry">
            <mxPoint x="100" y="90" as="targetPoint" />
          </mxGeometry>
        </mxCell>
        <mxCell id="Qh-RdTgBjZzOtJ_ydjXR-0" value="¿Existen Fechas disponibles?" style="rhombus;whiteSpace=wrap;html=1;fontColor=#000000;fillColor=#ffffc0;strokeColor=#ff0000;" vertex="1" parent="_nFTlH3o4lZq-jBkTrwl-4">
          <mxGeometry x="55" y="350" width="125" height="80" as="geometry" />
        </mxCell>
        <mxCell id="Qh-RdTgBjZzOtJ_ydjXR-1" value="no" style="edgeStyle=orthogonalEdgeStyle;html=1;align=left;verticalAlign=bottom;endArrow=open;endSize=8;strokeColor=#ff0000;rounded=0;entryX=0.395;entryY=-0.01;entryDx=0;entryDy=0;entryPerimeter=0;" edge="1" source="Qh-RdTgBjZzOtJ_ydjXR-0" parent="_nFTlH3o4lZq-jBkTrwl-4" target="Qh-RdTgBjZzOtJ_ydjXR-4">
          <mxGeometry x="-0.6047" relative="1" as="geometry">
            <mxPoint x="30" y="490" as="targetPoint" />
            <mxPoint as="offset" />
          </mxGeometry>
        </mxCell>
        <mxCell id="Qh-RdTgBjZzOtJ_ydjXR-4" value="&lt;b&gt;Cancela la cita&amp;nbsp;&lt;/b&gt;" style="html=1;whiteSpace=wrap;" vertex="1" parent="_nFTlH3o4lZq-jBkTrwl-4">
          <mxGeometry x="45" y="480" width="70" height="40" as="geometry" />
        </mxCell>
        <mxCell id="Py0lsdfp6IVD4lHHwmwc-0" value="&lt;b&gt;Genera Cita&lt;/b&gt;" style="html=1;whiteSpace=wrap;" vertex="1" parent="_nFTlH3o4lZq-jBkTrwl-4">
          <mxGeometry x="250" y="367.5" width="70" height="45" as="geometry" />
        </mxCell>
        <mxCell id="Qh-RdTgBjZzOtJ_ydjXR-2" value="yes" style="edgeStyle=orthogonalEdgeStyle;html=1;align=left;verticalAlign=top;endArrow=open;endSize=8;strokeColor=#ff0000;rounded=0;entryX=0;entryY=0.5;entryDx=0;entryDy=0;" edge="1" source="Qh-RdTgBjZzOtJ_ydjXR-0" parent="_nFTlH3o4lZq-jBkTrwl-4" target="Py0lsdfp6IVD4lHHwmwc-0">
          <mxGeometry x="-0.9253" y="30" relative="1" as="geometry">
            <mxPoint x="125" y="480" as="targetPoint" />
            <mxPoint as="offset" />
          </mxGeometry>
        </mxCell>
        <mxCell id="_nFTlH3o4lZq-jBkTrwl-15" value="Sistema" style="swimlane;html=1;startSize=20;" parent="_nFTlH3o4lZq-jBkTrwl-2" vertex="1">
          <mxGeometry x="360" y="20" width="402.5" height="760" as="geometry" />
        </mxCell>
        <mxCell id="_nFTlH3o4lZq-jBkTrwl-16" value="&lt;b&gt;&lt;font face=&quot;Helvetica&quot;&gt;Muestra las fechas y horas disponibles&lt;/font&gt;&lt;/b&gt;" style="rounded=0;whiteSpace=wrap;html=1;shadow=0;comic=0;labelBackgroundColor=none;strokeWidth=1;fontFamily=Verdana;fontSize=12;align=center;arcSize=50;" parent="_nFTlH3o4lZq-jBkTrwl-15" vertex="1">
          <mxGeometry x="65" y="145" width="115" height="50" as="geometry" />
        </mxCell>
        <mxCell id="SUyfEJQyd3kkHRIX35eT-1" value="" style="edgeStyle=orthogonalEdgeStyle;rounded=0;orthogonalLoop=1;jettySize=auto;html=1;" parent="_nFTlH3o4lZq-jBkTrwl-15" source="_nFTlH3o4lZq-jBkTrwl-17" target="SUyfEJQyd3kkHRIX35eT-0" edge="1">
          <mxGeometry relative="1" as="geometry" />
        </mxCell>
        <mxCell id="_nFTlH3o4lZq-jBkTrwl-17" value="&lt;b&gt;&lt;font face=&quot;Helvetica&quot;&gt;Guarda los detalles de la cita&lt;/font&gt;&lt;/b&gt;" style="whiteSpace=wrap;html=1;fontFamily=Verdana;rounded=0;shadow=0;comic=0;labelBackgroundColor=none;strokeWidth=1;arcSize=50;" parent="_nFTlH3o4lZq-jBkTrwl-15" vertex="1">
          <mxGeometry x="70" y="340" width="120" height="60" as="geometry" />
        </mxCell>
        <mxCell id="_nFTlH3o4lZq-jBkTrwl-19" style="edgeStyle=orthogonalEdgeStyle;rounded=0;orthogonalLoop=1;jettySize=auto;html=1;entryX=0.5;entryY=0;entryDx=0;entryDy=0;" parent="_nFTlH3o4lZq-jBkTrwl-15" source="_nFTlH3o4lZq-jBkTrwl-20" target="_nFTlH3o4lZq-jBkTrwl-21" edge="1">
          <mxGeometry relative="1" as="geometry" />
        </mxCell>
        <mxCell id="_nFTlH3o4lZq-jBkTrwl-20" value="&lt;b&gt;fin&amp;nbsp;&lt;/b&gt;" style="ellipse;whiteSpace=wrap;html=1;rounded=1;" parent="_nFTlH3o4lZq-jBkTrwl-15" vertex="1">
          <mxGeometry x="100" y="590" width="60" height="40" as="geometry" />
        </mxCell>
        <mxCell id="_nFTlH3o4lZq-jBkTrwl-21" value="" style="ellipse;html=1;shape=endState;fillColor=#000000;strokeColor=#ff0000;" parent="_nFTlH3o4lZq-jBkTrwl-15" vertex="1">
          <mxGeometry x="115" y="660" width="30" height="30" as="geometry" />
        </mxCell>
        <mxCell id="SUyfEJQyd3kkHRIX35eT-2" style="edgeStyle=orthogonalEdgeStyle;rounded=0;orthogonalLoop=1;jettySize=auto;html=1;entryX=0.5;entryY=0;entryDx=0;entryDy=0;" parent="_nFTlH3o4lZq-jBkTrwl-15" source="SUyfEJQyd3kkHRIX35eT-0" target="_nFTlH3o4lZq-jBkTrwl-20" edge="1">
          <mxGeometry relative="1" as="geometry" />
        </mxCell>
        <mxCell id="SUyfEJQyd3kkHRIX35eT-0" value="&lt;b&gt;&lt;font face=&quot;Helvetica&quot;&gt;Envía una notificación al cliente con los detalles de la cita&lt;/font&gt;&lt;/b&gt;" style="whiteSpace=wrap;html=1;fontFamily=Verdana;rounded=0;shadow=0;comic=0;labelBackgroundColor=none;strokeWidth=1;arcSize=50;" parent="_nFTlH3o4lZq-jBkTrwl-15" vertex="1">
          <mxGeometry x="70" y="470" width="120" height="70" as="geometry" />
        </mxCell>
        <mxCell id="Qh-RdTgBjZzOtJ_ydjXR-6" style="edgeStyle=orthogonalEdgeStyle;rounded=0;orthogonalLoop=1;jettySize=auto;html=1;entryX=0;entryY=0.5;entryDx=0;entryDy=0;" edge="1" parent="_nFTlH3o4lZq-jBkTrwl-2" source="Qh-RdTgBjZzOtJ_ydjXR-4" target="_nFTlH3o4lZq-jBkTrwl-21">
          <mxGeometry relative="1" as="geometry">
            <Array as="points">
              <mxPoint x="80" y="695" />
            </Array>
          </mxGeometry>
        </mxCell>
        <mxCell id="Py0lsdfp6IVD4lHHwmwc-2" style="edgeStyle=orthogonalEdgeStyle;rounded=0;orthogonalLoop=1;jettySize=auto;html=1;entryX=0;entryY=0.5;entryDx=0;entryDy=0;" edge="1" parent="_nFTlH3o4lZq-jBkTrwl-2" source="Py0lsdfp6IVD4lHHwmwc-0" target="_nFTlH3o4lZq-jBkTrwl-17">
          <mxGeometry relative="1" as="geometry" />
        </mxCell>
      </root>
    </mxGraphModel>
  </diagram>
  <diagram name="ReqFun9" id="239fE3OTlr3alQuMa66Y">
    <mxGraphModel dx="613" dy="671" grid="1" gridSize="10" guides="1" tooltips="1" connect="1" arrows="1" fold="1" page="1" pageScale="1" pageWidth="850" pageHeight="1100" background="none" math="0" shadow="0">
      <root>
        <mxCell id="5xPacC2jBOSX3Js3q3LQ-0" />
        <mxCell id="5xPacC2jBOSX3Js3q3LQ-1" parent="5xPacC2jBOSX3Js3q3LQ-0" />
        <mxCell id="5xPacC2jBOSX3Js3q3LQ-2" value="Generación de Informes Personalizados" style="swimlane;html=1;childLayout=stackLayout;startSize=20;rounded=0;shadow=0;comic=0;labelBackgroundColor=none;strokeWidth=1;fontFamily=Verdana;fontSize=12;align=center;" parent="5xPacC2jBOSX3Js3q3LQ-1" vertex="1">
          <mxGeometry x="80" y="40" width="730" height="780" as="geometry" />
        </mxCell>
        <mxCell id="5xPacC2jBOSX3Js3q3LQ-4" value="Medico&amp;nbsp;" style="swimlane;html=1;startSize=20;" parent="5xPacC2jBOSX3Js3q3LQ-2" vertex="1">
          <mxGeometry y="20" width="360" height="760" as="geometry" />
        </mxCell>
        <mxCell id="5xPacC2jBOSX3Js3q3LQ-6" style="edgeStyle=orthogonalEdgeStyle;rounded=0;orthogonalLoop=1;jettySize=auto;html=1;" parent="5xPacC2jBOSX3Js3q3LQ-4" source="5xPacC2jBOSX3Js3q3LQ-7" edge="1">
          <mxGeometry relative="1" as="geometry">
            <mxPoint x="100" y="150" as="targetPoint" />
          </mxGeometry>
        </mxCell>
        <mxCell id="5xPacC2jBOSX3Js3q3LQ-7" value="&lt;div style=&quot;text-align: start;&quot;&gt;&lt;font style=&quot;font-size: 12px;&quot; face=&quot;-apple-system, Roboto, SegoeUI, Segoe UI, Helvetica Neue, Helvetica, Microsoft YaHei, Meiryo UI, Meiryo, Arial Unicode MS, sans-serif&quot; color=&quot;#111111&quot;&gt;&lt;span style=&quot;white-space-collapse: preserve; background-color: rgb(247, 247, 247);&quot;&gt;&lt;b&gt;inicia sesión &lt;/b&gt;&lt;/span&gt;&lt;/font&gt;&lt;/div&gt;" style="rounded=1;whiteSpace=wrap;html=1;shadow=0;comic=0;labelBackgroundColor=none;strokeWidth=1;fontFamily=Verdana;fontSize=12;align=center;arcSize=50;" parent="5xPacC2jBOSX3Js3q3LQ-4" vertex="1">
          <mxGeometry x="50" y="90" width="100" height="30" as="geometry" />
        </mxCell>
        <mxCell id="4p1LH2nQrvETPzDCP0DN-0" style="edgeStyle=orthogonalEdgeStyle;rounded=0;orthogonalLoop=1;jettySize=auto;html=1;entryX=0.5;entryY=0;entryDx=0;entryDy=0;" parent="5xPacC2jBOSX3Js3q3LQ-4" source="5xPacC2jBOSX3Js3q3LQ-9" target="5xPacC2jBOSX3Js3q3LQ-11" edge="1">
          <mxGeometry relative="1" as="geometry" />
        </mxCell>
        <mxCell id="5xPacC2jBOSX3Js3q3LQ-9" value="&lt;b&gt;Solicita un informe personalizado&lt;/b&gt;" style="rounded=1;whiteSpace=wrap;html=1;" parent="5xPacC2jBOSX3Js3q3LQ-4" vertex="1">
          <mxGeometry x="50" y="150" width="110" height="60" as="geometry" />
        </mxCell>
        <mxCell id="4p1LH2nQrvETPzDCP0DN-4" value="" style="edgeStyle=orthogonalEdgeStyle;rounded=0;orthogonalLoop=1;jettySize=auto;html=1;" parent="5xPacC2jBOSX3Js3q3LQ-4" source="5xPacC2jBOSX3Js3q3LQ-10" edge="1">
          <mxGeometry relative="1" as="geometry">
            <mxPoint x="127.5" y="440" as="targetPoint" />
          </mxGeometry>
        </mxCell>
        <mxCell id="5xPacC2jBOSX3Js3q3LQ-10" value="&lt;b&gt;Revisa el informe generado&lt;/b&gt;" style="whiteSpace=wrap;html=1;fontFamily=Verdana;rounded=0;shadow=0;comic=0;labelBackgroundColor=none;strokeWidth=1;arcSize=50;" parent="5xPacC2jBOSX3Js3q3LQ-4" vertex="1">
          <mxGeometry x="80" y="340" width="95" height="60" as="geometry" />
        </mxCell>
        <mxCell id="5xPacC2jBOSX3Js3q3LQ-11" value="&lt;b&gt;Define los parámetros del informe personalizado&lt;/b&gt;" style="whiteSpace=wrap;html=1;fontFamily=Verdana;rounded=0;shadow=0;comic=0;labelBackgroundColor=none;strokeWidth=1;arcSize=50;" parent="5xPacC2jBOSX3Js3q3LQ-4" vertex="1">
          <mxGeometry x="52.5" y="240" width="105" height="60" as="geometry" />
        </mxCell>
        <mxCell id="4p1LH2nQrvETPzDCP0DN-13" style="edgeStyle=orthogonalEdgeStyle;rounded=0;orthogonalLoop=1;jettySize=auto;html=1;entryX=0.5;entryY=0;entryDx=0;entryDy=0;" parent="5xPacC2jBOSX3Js3q3LQ-4" source="4p1LH2nQrvETPzDCP0DN-9" target="5xPacC2jBOSX3Js3q3LQ-20" edge="1">
          <mxGeometry relative="1" as="geometry" />
        </mxCell>
        <mxCell id="4p1LH2nQrvETPzDCP0DN-9" value="&lt;b&gt;Acepta el Informe&lt;/b&gt;&amp;nbsp;" style="html=1;whiteSpace=wrap;" parent="5xPacC2jBOSX3Js3q3LQ-4" vertex="1">
          <mxGeometry x="77.5" y="560" width="90" height="40" as="geometry" />
        </mxCell>
        <mxCell id="5xPacC2jBOSX3Js3q3LQ-19" style="edgeStyle=orthogonalEdgeStyle;rounded=0;orthogonalLoop=1;jettySize=auto;html=1;entryX=0.5;entryY=0;entryDx=0;entryDy=0;" parent="5xPacC2jBOSX3Js3q3LQ-4" source="5xPacC2jBOSX3Js3q3LQ-20" target="5xPacC2jBOSX3Js3q3LQ-21" edge="1">
          <mxGeometry relative="1" as="geometry" />
        </mxCell>
        <mxCell id="5xPacC2jBOSX3Js3q3LQ-20" value="&lt;b&gt;fin&amp;nbsp;&lt;/b&gt;" style="ellipse;whiteSpace=wrap;html=1;rounded=1;" parent="5xPacC2jBOSX3Js3q3LQ-4" vertex="1">
          <mxGeometry x="92.5" y="640" width="60" height="40" as="geometry" />
        </mxCell>
        <mxCell id="5xPacC2jBOSX3Js3q3LQ-21" value="" style="ellipse;html=1;shape=endState;fillColor=#000000;strokeColor=#ff0000;" parent="5xPacC2jBOSX3Js3q3LQ-4" vertex="1">
          <mxGeometry x="107.5" y="710" width="30" height="30" as="geometry" />
        </mxCell>
        <mxCell id="wsmSLLFawpo9qvbaFnXd-0" value="" style="ellipse;html=1;shape=startState;fillColor=#000000;strokeColor=#ff0000;" vertex="1" parent="5xPacC2jBOSX3Js3q3LQ-4">
          <mxGeometry x="85" y="20" width="30" height="30" as="geometry" />
        </mxCell>
        <mxCell id="wsmSLLFawpo9qvbaFnXd-1" value="" style="edgeStyle=orthogonalEdgeStyle;html=1;verticalAlign=bottom;endArrow=open;endSize=8;strokeColor=#ff0000;rounded=0;" edge="1" source="wsmSLLFawpo9qvbaFnXd-0" parent="5xPacC2jBOSX3Js3q3LQ-4">
          <mxGeometry relative="1" as="geometry">
            <mxPoint x="100" y="90" as="targetPoint" />
          </mxGeometry>
        </mxCell>
        <mxCell id="wsmSLLFawpo9qvbaFnXd-3" value="&lt;b&gt;¿El informe es correcto?&lt;/b&gt;" style="rhombus;whiteSpace=wrap;html=1;fontColor=#000000;fillColor=#ffffc0;strokeColor=#ff0000;" vertex="1" parent="5xPacC2jBOSX3Js3q3LQ-4">
          <mxGeometry x="70" y="440" width="105" height="60" as="geometry" />
        </mxCell>
        <mxCell id="wsmSLLFawpo9qvbaFnXd-5" value="yes" style="edgeStyle=orthogonalEdgeStyle;html=1;align=left;verticalAlign=top;endArrow=open;endSize=8;strokeColor=#ff0000;rounded=0;" edge="1" source="wsmSLLFawpo9qvbaFnXd-3" parent="5xPacC2jBOSX3Js3q3LQ-4" target="4p1LH2nQrvETPzDCP0DN-9">
          <mxGeometry x="-1" relative="1" as="geometry">
            <mxPoint x="165" y="580" as="targetPoint" />
          </mxGeometry>
        </mxCell>
        <mxCell id="wsmSLLFawpo9qvbaFnXd-6" value="" style="edgeStyle=orthogonalEdgeStyle;html=1;align=left;verticalAlign=bottom;endArrow=open;endSize=8;strokeColor=#ff0000;rounded=0;" edge="1" parent="5xPacC2jBOSX3Js3q3LQ-4" source="wsmSLLFawpo9qvbaFnXd-3" target="4p1LH2nQrvETPzDCP0DN-5">
          <mxGeometry x="-1" relative="1" as="geometry">
            <mxPoint x="425" y="570" as="targetPoint" />
            <mxPoint x="295" y="540" as="sourcePoint" />
          </mxGeometry>
        </mxCell>
        <mxCell id="4p1LH2nQrvETPzDCP0DN-5" value="&lt;b&gt;&lt;font face=&quot;Helvetica&quot;&gt;Solicita nuevo Informe personalizado&lt;/font&gt;&lt;/b&gt;" style="whiteSpace=wrap;html=1;fontFamily=Verdana;rounded=0;shadow=0;comic=0;labelBackgroundColor=none;strokeWidth=1;arcSize=50;" parent="5xPacC2jBOSX3Js3q3LQ-4" vertex="1">
          <mxGeometry x="220" y="442.5" width="90" height="55" as="geometry" />
        </mxCell>
        <mxCell id="5xPacC2jBOSX3Js3q3LQ-15" value="Sistema" style="swimlane;html=1;startSize=20;" parent="5xPacC2jBOSX3Js3q3LQ-2" vertex="1">
          <mxGeometry x="360" y="20" width="370" height="760" as="geometry" />
        </mxCell>
        <mxCell id="5xPacC2jBOSX3Js3q3LQ-16" value="&lt;b&gt;Genera el informe personalizado&lt;/b&gt;" style="rounded=0;whiteSpace=wrap;html=1;shadow=0;comic=0;labelBackgroundColor=none;strokeWidth=1;fontFamily=Verdana;fontSize=12;align=center;arcSize=50;" parent="5xPacC2jBOSX3Js3q3LQ-15" vertex="1">
          <mxGeometry x="60" y="245" width="115" height="50" as="geometry" />
        </mxCell>
        <mxCell id="4p1LH2nQrvETPzDCP0DN-1" style="edgeStyle=orthogonalEdgeStyle;rounded=0;orthogonalLoop=1;jettySize=auto;html=1;" parent="5xPacC2jBOSX3Js3q3LQ-2" source="5xPacC2jBOSX3Js3q3LQ-11" target="5xPacC2jBOSX3Js3q3LQ-16" edge="1">
          <mxGeometry relative="1" as="geometry" />
        </mxCell>
        <mxCell id="4p1LH2nQrvETPzDCP0DN-2" style="edgeStyle=orthogonalEdgeStyle;rounded=0;orthogonalLoop=1;jettySize=auto;html=1;entryX=1;entryY=0.5;entryDx=0;entryDy=0;" parent="5xPacC2jBOSX3Js3q3LQ-2" source="5xPacC2jBOSX3Js3q3LQ-16" target="5xPacC2jBOSX3Js3q3LQ-10" edge="1">
          <mxGeometry relative="1" as="geometry">
            <Array as="points">
              <mxPoint x="478" y="390" />
            </Array>
          </mxGeometry>
        </mxCell>
        <mxCell id="4p1LH2nQrvETPzDCP0DN-12" style="edgeStyle=orthogonalEdgeStyle;rounded=0;orthogonalLoop=1;jettySize=auto;html=1;entryX=1;entryY=0.5;entryDx=0;entryDy=0;" parent="5xPacC2jBOSX3Js3q3LQ-2" source="4p1LH2nQrvETPzDCP0DN-5" target="5xPacC2jBOSX3Js3q3LQ-16" edge="1">
          <mxGeometry relative="1" as="geometry" />
        </mxCell>
        <mxCell id="wsmSLLFawpo9qvbaFnXd-7" value="no" style="text;html=1;align=center;verticalAlign=middle;resizable=0;points=[];autosize=1;strokeColor=none;fillColor=none;" vertex="1" parent="5xPacC2jBOSX3Js3q3LQ-1">
          <mxGeometry x="240" y="498" width="40" height="30" as="geometry" />
        </mxCell>
      </root>
    </mxGraphModel>
  </diagram>
</mxfile>
